<?xml version="1.0" standalone="no"?>
<!DOCTYPE svg PUBLIC "-//W3C//DTD SVG 20010904//EN"
 "http://www.w3.org/TR/2001/REC-SVG-20010904/DTD/svg10.dtd">
<svg version="1.0" xmlns="http://www.w3.org/2000/svg"
 width="2855.000000pt" height="2855.000000pt" viewBox="0 0 2855.000000 2855.000000"
 preserveAspectRatio="xMidYMid meet">

<g transform="translate(0.000000,2855.000000) scale(0.100000,-0.100000)"
fill="#384B85" stroke="none">
<path d="M13412 25640 c-192 -41 -294 -173 -321 -415 -13 -117 -14 -729 -1
-1340 24 -1178 31 -1835 21 -2124 -6 -162 -13 -296 -16 -299 -2 -3 -130 3
-282 12 -783 47 -1362 47 -2088 1 -415 -27 -1051 -88 -1099 -107 -49 -20 -122
-85 -170 -151 -78 -109 -125 -241 -186 -522 -17 -77 -42 -180 -57 -229 l-27
-88 24 -44 c49 -94 207 -215 384 -294 300 -134 667 -233 1651 -445 695 -150
1034 -235 1343 -336 155 -51 353 -129 441 -173 l48 -25 6 -78 c11 -132 37
-614 48 -898 17 -416 23 -2596 10 -3390 -23 -1382 -56 -2524 -91 -3170 -48
-871 -75 -1588 -91 -2337 -11 -542 -7 -796 21 -1528 37 -973 70 -2705 70
-3731 0 -625 0 -629 63 -708 106 -133 369 -247 690 -298 174 -28 627 -25 797
4 476 83 819 262 1027 537 92 122 174 330 189 483 7 67 -24 395 -167 1768
-343 3308 -434 4511 -469 6255 -6 278 -17 798 -25 1155 -8 358 -19 848 -25
1090 -32 1417 -32 2789 0 3435 40 801 110 1236 225 1386 31 40 110 72 398 159
658 197 2515 673 4650 1190 l279 68 -6 81 c-41 529 -112 834 -215 931 -32 30
-34 30 -159 33 -70 1 -287 9 -482 17 -898 38 -1172 32 -2670 -60 -311 -19
-659 -40 -775 -47 -227 -13 -1104 -18 -1146 -6 l-26 8 -7 172 c-61 1568 -314
2898 -696 3658 -114 227 -104 214 -175 228 -34 6 -143 37 -243 67 -259 80
-377 105 -512 110 -63 2 -134 0 -158 -5z"/>
<path d="M760 16355 l0 -395 163 0 c331 0 542 -29 659 -92 73 -39 168 -139
209 -221 65 -127 88 -230 111 -487 19 -216 19 -9452 0 -9685 -26 -314 -67
-477 -157 -620 -56 -90 -166 -195 -247 -236 -127 -64 -335 -99 -593 -99 l-145
0 0 -395 0 -395 1533 2 1532 3 3 391 2 391 -227 6 c-358 9 -506 51 -639 179
-151 145 -222 319 -261 638 -16 136 -18 437 -19 4985 l-2 4840 894 -3580 c491
-1969 1134 -4541 1427 -5715 l533 -2135 311 -3 312 -2 9 32 c5 18 643 2629
1418 5801 l1409 5768 3 -4823 c3 -4769 2 -4995 -28 -5304 -14 -140 -32 -202
-92 -324 -42 -87 -64 -118 -127 -181 -142 -141 -280 -179 -658 -179 l-173 0 0
-395 0 -395 1663 2 1662 3 3 393 2 392 -170 0 c-480 0 -655 75 -780 334 -26
55 -55 130 -64 166 -28 118 -46 319 -57 654 -15 477 -7 9313 9 9451 31 267 68
412 139 548 47 88 122 171 186 203 108 55 314 84 605 84 l132 0 -2 393 -3 392
-1326 3 c-1056 2 -1328 0 -1331 -10 -3 -7 -566 -2320 -1253 -5140 -687 -2821
-1252 -5128 -1255 -5128 -3 0 -579 2298 -1279 5108 -701 2809 -1278 5122
-1283 5140 l-9 32 -1374 0 -1375 0 0 -395z"/>
<path d="M17300 16355 l0 -395 163 0 c330 0 542 -29 658 -91 77 -41 168 -138
212 -224 76 -153 101 -292 118 -677 16 -367 7 -9361 -9 -9523 -41 -397 -108
-577 -276 -733 -144 -134 -304 -180 -663 -189 l-203 -6 0 -393 0 -394 1533 2
1532 3 3 393 2 392 -160 0 c-269 0 -461 30 -582 91 -162 82 -305 293 -352 520
-58 283 -57 220 -54 5333 l3 4700 1425 -5715 1426 -5714 311 -3 312 -2 9 32
c5 18 643 2628 1418 5800 l1409 5767 3 -4827 c3 -4777 2 -4999 -29 -5310 -19
-199 -94 -368 -218 -493 -138 -138 -241 -168 -603 -176 l-228 -6 0 -393 0
-394 1663 2 1662 3 3 391 2 391 -232 6 c-384 9 -522 53 -641 206 -116 148
-159 298 -189 656 -15 193 -24 9150 -9 9507 17 393 51 582 136 753 80 161 166
236 319 275 89 23 298 40 484 40 l132 0 -2 393 -3 392 -1327 3 c-1257 2 -1327
1 -1332 -15 -2 -10 -566 -2323 -1252 -5140 -686 -2818 -1251 -5123 -1254
-5123 -3 0 -578 2298 -1279 5106 -700 2809 -1277 5122 -1283 5140 l-9 34
-1374 0 -1375 0 0 -395z"/>
</g>
</svg>
