<?xml version="1.0" encoding="utf-8"?>
<!DOCTYPE svg PUBLIC "-//W3C//DTD SVG 20010904//EN" "http://www.w3.org/TR/2001/REC-SVG-20010904/DTD/svg10.dtd">
<svg version="1.0" xmlns="http://www.w3.org/2000/svg" width="2855px" height="2855px" viewBox="0 0 2855 2855" preserveAspectRatio="xMidYMid meet">
 <g fill="#384b85" stroke="#ffffff" stroke-width="10">
  <path d="M1400 2564.4 c-1.9 -0.2 -7.8 -0.9 -13 -1.5 -19.1 -2.1 -42 -8.3 -55 -14.9 -9.2 -4.6 -17.7 -11.5 -21.7 -17.6 l-3.8 -5.7 -0.7 -67.6 c-1.8 -180.2 -4 -283 -8.4 -397.1 -3.2 -80.8 -0.6 -195.8 8.1 -358 1.3 -25 2.9 -60.8 3.5 -79.5 8.7 -282.8 9.2 -506.8 1.5 -640.5 -2.2 -37 -1 -33 -11.6 -37.9 -35.7 -16.6 -74 -27.3 -181.4 -50.6 -96 -20.8 -135.6 -31.9 -163.5 -45.8 -16.6 -8.4 -28.4 -17.9 -32.7 -26.6 l-2.1 -4.2 2 -6.2 c1.1 -3.4 4 -15 6.4 -25.7 5.3 -23.4 8.3 -32.9 13.7 -43.5 4.4 -8.5 13.5 -18.8 19.4 -21.9 5.4 -2.8 64.7 -8.7 128.8 -12.8 31.1 -2 146.5 -1.7 181.5 0.5 15.1 0.9 30 2 33.2 2.3 l5.6 0.6 0.9 -6.8 c1.2 -10.5 0.9 -141.4 -0.6 -209.4 -0.7 -33.3 -1.4 -83 -1.4 -110.5 0 -42.3 0.2 -51.2 1.6 -57.8 5.5 -26.3 21.8 -37.4 51.4 -34.6 11.9 1.1 19.6 2.9 45.3 10.6 11.8 3.5 23.6 6.7 26.1 7 4.4 0.5 4.8 0.8 8.2 6.7 10.8 18.6 23.5 48.5 32.1 75.4 24.7 77.1 39.6 176 45.6 301.6 0.6 12.1 1.2 22.1 1.4 22.3 0.2 0.2 10.2 0.9 22.2 1.4 14.9 0.7 32.5 0.7 54.9 -0.1 36.2 -1.1 42.7 -1.5 125.5 -6.5 132.2 -8 175.6 -9.1 245.5 -6.1 18.2 0.8 42.4 1.8 53.8 2.2 l20.8 0.7 3 3 c1.6 1.6 4 5 5.3 7.6 7.1 13.9 13.4 47.8 15.2 81.1 l0.7 11.5 -28.4 6.9 c-205.2 49.5 -399.1 99.2 -466.9 119.7 -33.6 10.1 -35.9 11.4 -41.2 22.5 -9.5 20.3 -15.1 62.8 -19 145.9 -1.7 35 -1.7 229.4 0 301 2.1 89.3 5.1 222.7 5.7 254 3.3 168.6 13 298.4 46.9 624 12.9 123.8 16.8 163.7 16.8 172.5 0 14.9 -7.6 36.4 -17.9 50.8 -20.8 29.2 -61.1 49.5 -111.8 56.2 -8.3 1.1 -45.4 2.1 -51.5 1.4z"/>
  <path d="M76 2442 l0 -39 18.3 0 c26.2 0 39.8 -2.3 54.2 -8.9 18.6 -8.6 32.8 -28.7 38 -53.6 0.9 -4.4 2.4 -14.5 3.3 -22.5 1.6 -13.4 1.7 -50 1.7 -493 0 -507.9 0.1 -491.3 -4.6 -514.3 -2.5 -12.2 -8.9 -25.4 -16.2 -33.3 -13 -14 -29.9 -18.3 -71.9 -18.4 l-22.8 0 0 -39 0 -39 137.4 0 137.4 0 77.6 311.3 c42.7 171.1 100.5 402.7 128.3 514.5 27.9 111.7 51 203.2 51.3 203.2 0.4 0 236.4 -966.4 248.8 -1018.7 l2.4 -10.3 132.4 0 132.4 0 0 39 0 39 -19.2 0 c-38.7 0.1 -55.1 4.6 -65.9 18.3 -12.2 15.3 -18.6 38.3 -20.9 74.8 -1.6 25.6 -0.9 955.9 0.8 971.9 3.5 33.5 8.4 47.7 21.3 61.5 7 7.4 14.6 11.7 26 14.6 7.1 1.8 12.3 2.2 33.2 2.6 l24.7 0.5 0 38.9 0 38.9 -166 0 -166 0 0 -38.9 0 -38.9 25.3 -0.5 c27.7 -0.5 35.5 -1.7 46 -7.4 14.5 -7.9 27 -25.9 32 -46.4 1.9 -7.6 3.3 -23.5 4.7 -52.9 1.2 -27 1.4 -977.8 0.1 -976.4 -0.4 0.5 -63 255.6 -139.1 566.9 -76 311.3 -139.8 572.4 -141.7 580.3 l-3.6 14.2 -31 -0.2 -30.9 -0.3 -142.5 -571.5 c-78.4 -314.3 -142.9 -571.9 -143.4 -572.5 -1.5 -1.6 -0.5 959.1 1 974.5 3.6 37.4 9.7 55.5 24.3 71.5 7.1 7.8 13 11.6 23 15 12 3.9 24.9 5.5 46.6 5.5 l19.2 0 0 39 0 39 -153 0 -153 0 0 -39z"/>
  <path d="M1730 2442 l0 -39 18.3 0 c35.1 0 54.1 -5.2 68.7 -18.7 18.1 -16.7 25 -37 28 -82.1 1.4 -21.2 1.4 -935.7 0 -957.7 -2.5 -38.2 -8.7 -56.8 -23.5 -70.3 -12.6 -11.6 -29.1 -15.2 -69.2 -15.2 l-22.3 0 0 -39 0 -39 137.4 0 137.4 0 96.2 385.8 c153.2 614.1 160.5 643.2 161.1 643.2 0.4 0 240.1 -981.7 250.2 -1024.7 l1 -4.3 132.4 0 132.3 0 0 38.9 0 38.9 -24.2 0.5 c-35.7 0.8 -46.9 3.6 -58 14.9 -4 4 -7 8.5 -10.2 15 -7.9 16.1 -11.5 32.5 -13.6 61.8 -1.3 19.7 -1.4 927.9 0 955 2.3 45.1 7.4 63.5 21.7 79 7.3 7.9 14.7 12.1 26.4 15.1 7.1 1.8 12.3 2.2 33.2 2.6 l24.7 0.5 0 38.9 0 38.9 -166 0 -166 0 0 -38.9 0 -38.9 25.3 -0.5 c27.3 -0.5 34.7 -1.6 45.5 -7.1 14.3 -7.2 28.1 -27.1 32.7 -47 0.8 -3.5 2.3 -15.1 3.2 -25.8 1.6 -17.8 1.7 -57.3 2 -511.8 0.2 -280.7 0 -492 -0.5 -491.5 -0.5 0.6 -62.4 253 -137.6 561 -75.3 308 -139 569.1 -141.8 580.3 l-5 20.2 -30.8 0 c-23.7 0 -30.9 -0.3 -31.3 -1.2 -0.2 -0.7 -64.4 -258 -142.7 -571.8 -78.2 -313.8 -142.6 -570.9 -143.1 -571.5 -1.5 -1.5 -0.5 957.8 1 974 3.4 37.3 9.9 56.4 24.7 72.4 6.9 7.5 12.8 11.3 22.6 14.6 12 3.9 24.9 5.5 46.6 5.5 l19.2 0 0 39 0 39 -153 0 -153 0 0 -39z"/>
 </g>
</svg>