<?xml version="1.0" encoding="utf-8"?>
<!DOCTYPE svg PUBLIC "-//W3C//DTD SVG 20010904//EN" "http://www.w3.org/TR/2001/REC-SVG-20010904/DTD/svg10.dtd">
<svg version="1.2" xmlns="http://www.w3.org/2000/svg" width="512px" height="512px" viewBox="0 0 512 512" preserveAspectRatio="xMidYMid meet" zoomAndPan="disable" baseProfile="tiny-ps" xml:lang="en" xml:id="svg_mtm_6" xml:base="none" xml:space="default">
 <title>Mel Trotter Ministries</title>
 <g fill="#000000">
  <path d="M0 256 l0 -256 256 0 256 0 0 256 0 256 -256 0 -256 0 0 -256z m259.45 110.95 c3.50 -1.15 6.10 -2.65 7.80 -4.55 2.10 -2.30 2.45 -3.55 2.05 -7.55 -0.35 -3.40 -1.05 -10.10 -1.80 -17.10 -2.65 -25.10 -3.35 -35.40 -4 -56 -0.95 -31.60 -1.15 -56.20 -0.55 -62.75 0.65 -7.10 1.45 -11.30 2.25 -11.95 1 -0.80 9.70 -3.45 14.30 -4.40 0.70 -0.10 1.70 -0.40 2.25 -0.65 0.55 -0.25 1.70 -0.55 2.50 -0.75 0.85 -0.15 2.35 -0.50 3.40 -0.75 1 -0.30 2.75 -0.70 3.85 -1 1.10 -0.25 2.90 -0.70 4 -1 1.10 -0.25 2.90 -0.70 4 -1 1.10 -0.25 2.90 -0.70 4 -1 1.10 -0.25 2.95 -0.75 4.15 -1.05 1.15 -0.30 2.95 -0.65 4 -0.80 1 -0.15 2 -0.45 2.15 -0.70 0.15 -0.25 1.05 -0.45 2 -0.45 1.70 0 1.70 0 1.70 -2.35 0 -1.55 -0.40 -3 -1 -4.05 l-1.05 -1.65 -12.95 0.25 c-7.15 0.15 -18.80 0.45 -25.95 0.60 l-12.90 0.25 -0.30 -5.15 c-0.90 -14.55 -2.80 -23.90 -6.60 -32.55 -0.85 -1.90 -1.75 -2.50 -5.95 -3.85 -2.35 -0.75 -4 -0.05 -4.65 1.95 -0.20 0.70 -0.40 9.85 -0.40 20.30 l0 19 -4 -0.25 c-6.55 -0.40 -17.05 -0.25 -23.95 0.30 -6.45 0.55 -6.50 0.55 -7.85 2.15 -1.25 1.50 -1.80 3.05 -2.10 5.80 -0.10 0.75 0.65 1.35 3.10 2.60 1.80 0.85 3.80 1.65 4.50 1.80 0.70 0.15 2.75 0.60 4.55 1.05 1.80 0.50 4.20 1.05 5.40 1.30 11.35 2.60 13.40 3.10 15.85 4 0.55 0.25 1.70 0.65 2.60 1 1.45 0.55 1.65 0.85 2 3.40 0.70 4.85 0.45 55.10 -0.35 71.60 -1.05 22.20 -0.65 80.80 0.60 83.35 0.30 0.60 0.90 1.20 1.35 1.35 3.90 1.40 5.15 1.70 7.50 1.75 1.50 0.05 3.55 -0.20 4.50 -0.50z m-108.95 -9.95 l0 -2.50 -3.10 0 c-2.50 0 -3.35 -0.25 -4.75 -1.30 -3.65 -2.80 -3.40 1.40 -3.55 -55.80 l-0.15 -51.40 1.65 0 c1.90 0 1.75 -0.35 4.35 10.40 0.60 2.35 1.30 5.25 2 8 0.30 1.15 0.80 3 1.05 4.10 0.30 1.10 0.75 2.90 1 4 0.30 1.10 0.70 2.85 0.95 3.90 0.25 1 0.70 2.80 1 4 0.30 1.15 0.75 2.95 1 4 0.25 1 0.75 2.85 1.05 4.10 0.30 1.25 0.80 3.10 1.05 4.15 0.60 2.35 1.30 5.25 2 8 0.30 1.15 0.75 2.95 1 4 0.25 1 0.70 2.80 1 4 0.30 1.15 0.75 2.95 1 4 0.25 1 0.70 2.75 0.95 3.85 0.30 1.10 0.70 2.85 0.95 3.90 0.25 1 0.70 2.80 1 4 0.30 1.15 0.80 3 1.05 4.10 0.30 1.10 0.75 2.90 1 4 0.30 1.10 0.75 2.90 1 4 0.30 1.10 0.75 2.90 1 4 0.30 1.10 0.75 2.90 1 4 0.30 1.10 0.75 2.90 1 4 1.35 5.35 1.60 6.35 2.05 7.80 0.25 0.85 0.45 1.90 0.45 2.35 0 0.60 0.40 0.85 1.40 0.85 1.50 0 2.60 -1.50 2.60 -3.50 0 -0.50 0.20 -1.45 0.45 -2.10 0.25 -0.65 0.70 -2.40 1 -3.90 0.35 -1.50 0.80 -3.60 1.05 -4.60 0.30 -1.05 0.75 -2.80 1 -3.90 0.30 -1.10 0.75 -2.90 1 -4 0.30 -1.10 0.75 -2.95 1.05 -4.10 0.80 -3.25 1.35 -5.40 1.95 -8.15 0.55 -2.45 1 -4.20 2.05 -8.35 0.30 -1.20 0.70 -2.95 0.95 -3.90 0.25 -0.95 0.65 -2.65 0.95 -3.75 0.25 -1.10 0.75 -3.10 1.05 -4.50 0.30 -1.35 0.80 -3.40 1.05 -4.50 0.30 -1.10 0.70 -2.80 0.95 -3.75 0.50 -2.15 1.25 -5.10 1.95 -7.75 0.25 -1.10 0.95 -4 1.55 -6.50 0.60 -2.45 1.25 -5.35 1.50 -6.35 0.30 -1.05 0.75 -2.85 1.05 -4 0.30 -1.20 0.75 -3 1 -4 0.25 -1.05 0.65 -2.75 0.90 -3.75 0.30 -1.05 0.75 -3 1.05 -4.40 0.30 -1.35 0.80 -3.40 1.05 -4.50 0.30 -1.10 0.70 -2.80 0.95 -3.75 0.35 -1.55 1.30 -5.15 1.80 -6.85 0.10 -0.35 0.95 -0.65 1.95 -0.65 l1.75 0 0 48.90 c0 47.70 -0.20 55.70 -1.60 58.30 -1.30 2.40 -3.05 3.30 -6.60 3.30 l-2.80 0 0 2.50 0 2.50 15 0 15 0 0 -2.50 0 -2.50 -3.15 0 c-2.90 0 -3.35 -0.15 -4.95 -1.60 -1.25 -1.15 -1.95 -2.35 -2.35 -4 -0.40 -1.60 -0.55 -17.90 -0.55 -52.75 0.05 -51.55 0.10 -52.75 1.95 -56.05 0.85 -1.55 3.45 -2.60 6.55 -2.60 l2.50 0 0 -2.25 0 -2.25 -11.85 0.10 -11.90 0.15 -0.15 1.25 c-0.05 0.70 -0.35 2.15 -0.65 3.25 -0.30 1.10 -0.70 2.80 -0.95 3.75 -0.50 2.15 -1.25 5.10 -1.95 7.75 -0.25 1.10 -0.95 4.05 -1.55 6.50 -0.60 2.50 -1.30 5.40 -1.55 6.50 -0.30 1.10 -0.70 2.80 -0.95 3.75 -0.25 0.95 -0.65 2.65 -0.95 3.75 -0.25 1.10 -0.75 3.15 -1.05 4.50 -0.30 1.40 -0.80 3.40 -1.05 4.50 -0.30 1.10 -0.75 2.85 -1 3.90 -0.25 1 -0.65 2.70 -0.90 3.75 -0.25 1 -0.70 2.75 -1 3.85 -0.25 1.10 -0.95 4.05 -1.55 6.50 -1.05 4.50 -1.50 6.30 -2.45 10 -0.25 1.10 -0.75 3.15 -1.05 4.50 -0.55 2.45 -1 4.20 -2.05 8.40 -0.30 1.15 -0.75 2.95 -1 4 -1 4.10 -1.55 6.15 -2 7.65 -0.25 0.85 -0.45 2 -0.45 2.60 0 0.95 -0.30 1.10 -2 1.10 -1.55 0 -2 -0.20 -2 -0.85 0 -0.45 -0.20 -1.50 -0.45 -2.35 -0.45 -1.45 -0.70 -2.45 -2.05 -7.80 -0.25 -1.10 -0.70 -2.90 -1 -4 -0.25 -1.10 -0.70 -2.90 -1 -4 -0.25 -1.10 -0.70 -2.90 -1 -4 -0.25 -1.10 -0.70 -2.90 -1 -4 -0.25 -1.10 -0.70 -2.90 -1 -4 -0.25 -1.10 -0.75 -2.95 -1.05 -4.10 -0.30 -1.20 -0.75 -3 -1 -4 -0.25 -1.05 -0.70 -2.85 -1 -4 -0.70 -2.75 -1.40 -5.65 -2 -8 -0.25 -1.05 -0.65 -2.80 -0.95 -3.90 -0.25 -1.10 -0.70 -2.85 -0.95 -3.85 -0.25 -1.05 -0.70 -2.80 -1 -3.90 -0.95 -3.75 -2.15 -8.50 -2.50 -10.25 -0.25 -0.95 -1.95 -7.90 -3.80 -15.35 l-3.45 -13.65 -11.90 0 -11.90 0 0 2.25 0 2.25 2.50 0 c3.70 0 6.35 1.25 7.50 3.55 0.95 1.85 1 3.30 1 54 0 37.15 -0.15 52.60 -0.55 53.95 -1.10 3.70 -3.65 5.50 -7.70 5.50 l-2.75 0 0 2.50 0 2.50 13.50 0 13.50 0 0 -2.50z m164.50 0 l0 -2.50 -3 0 c-4.60 0 -6.45 -1.40 -7.75 -5.75 -0.65 -2.30 -0.75 -9.10 -0.75 -52.70 l0 -50.05 1.75 0 c1 0 1.85 0.30 1.95 0.65 0.10 0.30 2.25 9.05 4.75 19.35 2.50 10.30 4.80 19.55 5 20.50 0.25 0.95 0.70 2.65 0.95 3.75 0.30 1.10 0.75 2.95 1.05 4.15 0.30 1.15 0.80 3 1.05 4.10 0.30 1.10 0.75 2.90 1 4 0.30 1.10 0.75 2.95 1.05 4.15 0.30 1.15 0.75 2.95 1 4 0.25 1 0.70 2.75 0.95 3.85 0.30 1.10 0.75 2.90 1 4 0.30 1.10 0.70 2.85 0.95 3.90 0.25 1 0.70 2.80 1 4 0.30 1.15 0.80 3 1.05 4.10 0.30 1.10 0.75 2.90 1 4 0.30 1.10 0.75 2.90 1 4 0.30 1.10 0.75 2.90 1 4 0.30 1.10 0.75 2.90 1 4 0.30 1.10 0.75 2.95 1.05 4.15 0.30 1.15 0.75 3 1.05 4.10 1.10 4.45 1.10 4.50 2.75 4.65 1.40 0.15 1.55 0 1.80 -1.50 0.25 -1.55 0.75 -3.75 1.85 -7.90 0.25 -0.95 0.70 -2.85 1 -4.25 0.75 -3.15 1.35 -5.70 2 -8.10 0.25 -1.05 0.70 -2.85 1 -4 0.25 -1.20 0.75 -3.05 1 -4.15 0.30 -1.10 0.75 -2.90 1 -4 0.70 -2.75 1.30 -5.30 2 -8.25 0.55 -2.45 1.10 -4.65 2 -8.35 0.50 -1.80 1.05 -4.10 1.95 -7.90 0.25 -0.95 0.70 -2.85 1.05 -4.25 0.30 -1.35 0.75 -3.30 1 -4.25 0.25 -0.95 0.70 -2.70 1 -3.85 0.25 -1.20 0.70 -3 1 -4 1.25 -5 1.90 -7.65 3 -12.40 0.30 -1.35 0.75 -3.30 1 -4.25 0.25 -0.95 0.70 -2.70 1 -3.85 0.25 -1.20 0.70 -3 1 -4 1.10 -4.40 1.45 -6 1.75 -7.40 0.15 -0.80 0.50 -2.30 0.75 -3.25 0.25 -0.95 0.60 -2.35 0.75 -3.10 0.25 -1.20 0.50 -1.40 2 -1.40 l1.75 0 0 51.70 c0 56.45 0.15 53.85 -2.85 56.60 -1.10 1 -1.80 1.20 -4.45 1.20 l-3.20 0 0 2.50 0 2.50 14.75 0 14.75 0 0 -2.50 0 -2.50 -2.80 0 c-3.50 0 -6.20 -1.35 -6.20 -3.10 0 -0.40 -0.30 -1 -0.60 -1.30 -0.50 -0.50 -0.65 -11.95 -0.65 -53.75 l0 -53.10 1.15 -2.10 c1.30 -2.50 3.55 -3.65 6.90 -3.65 l2.20 0 0 -2.25 0 -2.25 -11.40 0 -11.40 0 -0.60 2.40 c-0.35 1.30 -0.85 3.15 -1.10 4.10 -0.20 0.95 -0.65 2.65 -0.95 3.75 -0.25 1.10 -0.95 4.05 -1.55 6.50 -1.10 4.70 -1.60 6.70 -2.45 10 -0.25 1.10 -0.95 4.05 -1.55 6.50 -0.60 2.50 -1.25 5.35 -1.50 6.40 -0.30 1 -0.70 2.75 -1 3.85 -0.25 1.10 -0.75 2.95 -1.05 4.15 -0.95 3.85 -1.40 5.55 -2.45 10.10 -1.05 4.55 -1.50 6.25 -2.45 10.15 -1.05 4.15 -1.50 5.90 -2.05 8.35 -0.70 3.20 -1.50 6.50 -2.95 12.15 -1.35 5.30 -2 8 -2.80 11.75 -0.25 1.20 -0.50 1.35 -2.25 1.35 -1.75 0 -2 -0.15 -2.25 -1.35 -0.50 -2.35 -1.35 -5.85 -1.80 -7.40 -0.25 -0.80 -2.45 -9.80 -4.95 -20 -2.50 -10.15 -4.70 -19.15 -4.95 -20 -0.25 -0.80 -0.70 -2.60 -1 -4 -0.35 -1.35 -0.85 -3.40 -1.10 -4.50 -0.30 -1.10 -0.70 -2.80 -0.95 -3.75 -0.25 -0.95 -0.65 -2.70 -0.95 -3.85 -0.30 -1.20 -0.80 -3.10 -1.10 -4.25 -0.30 -1.20 -0.75 -3 -1 -4 -0.25 -1.05 -0.65 -2.75 -0.90 -3.75 -0.25 -1.05 -0.70 -2.85 -1 -4 -0.30 -1.20 -0.80 -3.10 -1.10 -4.25 -0.30 -1.20 -0.75 -3 -1 -4 -0.25 -1.05 -0.70 -2.85 -1 -4 -0.95 -3.85 -1.40 -5.65 -1.70 -7 l-0.25 -1.40 -12.25 0 -12.25 0 0 2.25 0 2.25 3 0 c5.25 0 7.40 1.70 8.35 6.65 0.80 4.20 0.90 97.80 0.10 102.15 -1.10 6.10 -3.30 8.20 -8.50 8.20 l-2.95 0 0 2.50 0 2.50 13.75 0 13.75 0 0 -2.50z"/>
 </g>
 <g fill="#ffffff">
  <path d="M248.75 368.20 c-1.10 -0.40 -2.35 -0.85 -2.80 -1 -0.45 -0.15 -1.05 -0.75 -1.35 -1.35 -1.25 -2.60 -1.65 -63.85 -0.60 -86.35 0.80 -16.45 1.05 -63.80 0.35 -68.60 -0.35 -2.55 -0.55 -2.85 -2 -3.40 -0.90 -0.35 -2.05 -0.75 -2.60 -1 -2.45 -0.90 -4.50 -1.40 -15.85 -4 -1.95 -0.40 -6.40 -1.50 -10.15 -2.45 -2.75 -0.70 -6.80 -2.70 -7.45 -3.65 -0.50 -0.70 -0.55 -1.45 -0.20 -3.05 0.25 -1.15 0.60 -2.70 0.75 -3.45 0.15 -0.70 0.85 -2.05 1.60 -2.95 1.35 -1.60 1.40 -1.60 7.85 -2.15 6.75 -0.55 21.15 -0.75 25.45 -0.30 l2.50 0.25 0 -19.25 c0 -10.95 0.20 -19.70 0.45 -20.25 1.35 -2.85 5.05 -3 11.15 -0.45 4 1.65 7.90 16.75 9 35.15 l0.30 5.15 12.30 -0.35 c6.75 -0.20 18.45 -0.40 26 -0.45 l13.75 -0.05 0.85 1.50 c0.55 0.95 0.95 2.85 1.05 5.25 l0.15 3.75 -1.50 0.15 c-0.80 0.05 -1.95 0.35 -2.50 0.60 -0.55 0.25 -1.65 0.55 -2.50 0.70 -1.40 0.20 -3.55 0.70 -7.85 1.80 -1.05 0.30 -2.75 0.70 -3.75 1 -1.05 0.25 -2.90 0.70 -4.15 1 -1.25 0.30 -3.05 0.75 -4 1 -3.40 0.90 -5.75 1.45 -7.25 1.75 -0.80 0.20 -1.95 0.50 -2.50 0.75 -0.55 0.25 -1.55 0.55 -2.25 0.65 -4.60 0.95 -13.30 3.60 -14.30 4.40 -0.80 0.65 -1.60 4.85 -2.25 11.95 -1.15 12.05 0.50 72.95 2.50 94.75 1.10 11.65 1.55 16.15 3.10 30.50 0.80 7.55 1.10 13.65 0.75 15.05 -0.75 2.85 -4.80 6 -9.85 7.65 -2.40 0.75 -9.75 0.60 -12.20 -0.25z"/>
  <path d="M122 357 l0 -4 2.75 0 c4.05 0 6.60 -1.80 7.70 -5.50 0.40 -1.35 0.55 -16.40 0.55 -52.45 0 -49.20 -0.05 -50.65 -1 -52.50 -1.15 -2.30 -3.80 -3.55 -7.50 -3.55 l-2.50 0 0 -3.75 0 -3.75 13.40 0 13.40 0 3.45 13.65 c1.85 7.45 3.55 14.40 3.80 15.35 0.35 1.60 1.30 5.55 2.45 10.15 0.30 1 0.75 2.75 1 3.85 0.30 1.10 0.75 2.95 1.05 4.15 0.30 1.15 0.75 2.95 1 4 0.25 1 0.70 2.75 0.95 3.85 0.30 1.10 0.75 2.90 1 4 0.30 1.10 0.70 2.85 0.95 3.90 0.25 1 0.70 2.80 1 4 0.30 1.15 0.80 3 1.05 4.10 0.30 1.10 0.75 2.95 1.05 4.15 0.30 1.15 0.75 2.95 1 4 0.25 1 0.70 2.75 0.95 3.85 0.30 1.10 0.70 2.85 0.95 3.90 1.50 6 2.55 10.10 3.10 11.90 0.25 0.85 0.45 1.90 0.45 2.35 0 0.45 0.25 0.85 0.50 0.85 0.30 0 0.50 -0.50 0.50 -1.10 0 -0.60 0.20 -1.75 0.45 -2.60 0.45 -1.45 0.70 -2.45 2.05 -7.80 0.30 -1.10 0.75 -2.95 1.05 -4.10 0.80 -3.25 1.35 -5.40 1.95 -8.15 0.30 -1.35 0.80 -3.40 1.05 -4.50 0.95 -3.70 1.40 -5.50 2.45 -10 0.60 -2.45 1.25 -5.35 1.50 -6.35 0.30 -1.05 0.70 -2.75 0.95 -3.75 0.25 -1.05 0.70 -2.85 1 -4 1.05 -4.20 1.50 -5.95 2.05 -8.40 0.75 -3.35 1.75 -7.45 2.95 -12 0.25 -1.10 0.95 -4 1.55 -6.50 0.60 -2.45 1.25 -5.35 1.50 -6.35 0.30 -1.05 0.75 -2.85 1.05 -4 0.30 -1.20 0.75 -3 1 -4 0.25 -1.05 0.65 -2.75 0.95 -3.75 0.25 -1.05 0.55 -2.45 0.60 -3.15 l0.15 -1.25 13.40 -0.15 13.35 -0.10 0 3.75 0 3.75 -2.50 0 c-3.10 0 -5.70 1.05 -6.55 2.60 -1.85 3.30 -1.90 4.55 -1.95 54.55 0 33.75 0.15 49.65 0.55 51.25 0.40 1.65 1.10 2.85 2.35 4 1.60 1.45 2.05 1.60 4.95 1.60 l3.15 0 0 4 0 4 -16.50 0 -16.50 0 0 -4 0 -4 2.80 0 c5.45 0 6.85 -1.70 7.70 -9.05 0.60 -5.05 0.50 -99.30 -0.05 -97.95 -0.55 1.25 -2.55 8.95 -3.95 15.25 -0.30 1.40 -0.80 3.40 -1.05 4.50 -0.30 1.10 -0.70 2.80 -0.95 3.75 -0.25 0.95 -0.65 2.70 -0.95 3.90 -0.30 1.15 -0.75 2.95 -1.05 4 -0.25 1 -0.90 3.90 -1.50 6.35 -0.60 2.50 -1.25 5.30 -1.50 6.25 -0.80 3.35 -1.40 5.75 -1.95 7.90 -1.05 4.15 -1.50 5.90 -2.05 8.35 -0.55 2.45 -1 4.20 -2.05 8.40 -1.45 5.60 -2.25 8.90 -2.95 12.10 -0.70 3.20 -1.50 6.50 -2.95 12.15 -0.30 1.15 -0.75 3 -1.05 4.10 -0.25 1.10 -0.70 2.85 -1 3.90 -0.25 1 -0.70 3.10 -1.05 4.60 -0.30 1.50 -0.75 3.25 -1 3.90 -0.25 0.65 -0.45 1.60 -0.45 2.10 0 0.50 -0.25 1.55 -0.60 2.25 -0.50 1.15 -0.85 1.25 -3.50 1.25 -2.40 0 -2.90 -0.15 -2.90 -0.85 0 -0.45 -0.20 -1.50 -0.45 -2.35 -0.45 -1.45 -0.70 -2.45 -2.05 -7.80 -0.25 -1.10 -0.70 -2.90 -1 -4 -0.25 -1.10 -0.70 -2.90 -1 -4 -0.25 -1.10 -0.70 -2.90 -1 -4 -0.25 -1.10 -0.70 -2.90 -1 -4 -0.25 -1.10 -0.70 -2.90 -1 -4 -0.25 -1.10 -0.75 -2.95 -1.05 -4.10 -0.30 -1.20 -0.75 -3 -1 -4 -0.25 -1.05 -0.65 -2.80 -0.95 -3.90 -0.25 -1.10 -0.70 -2.85 -0.95 -3.85 -0.25 -1.05 -0.70 -2.85 -1 -4 -0.30 -1.20 -0.75 -3 -1 -4 -0.25 -1.05 -0.70 -2.85 -1 -4 -0.70 -2.75 -1.40 -5.65 -2 -8 -0.25 -1.05 -0.75 -2.90 -1.05 -4.15 -0.30 -1.25 -0.80 -3.10 -1.05 -4.10 -0.25 -1.05 -0.70 -2.85 -1 -4 -0.30 -1.20 -0.75 -3 -1 -4 -0.25 -1.05 -0.65 -2.80 -0.95 -3.90 -0.25 -1.10 -0.70 -2.90 -1 -4 -0.25 -1.10 -0.75 -2.95 -1.05 -4.10 -0.70 -2.75 -1.40 -5.65 -2 -8 -3.15 -12.90 -2.90 -16 -2.80 39.35 0.10 55.70 -0.15 51.65 3.50 54.45 1.40 1.05 2.25 1.30 4.75 1.30 l3.10 0 0 4 0 4 -15 0 -15 0 0 -4z"/>
  <path d="M286 357 l0 -4 2.95 0 c5.20 0 7.40 -2.10 8.50 -8.20 0.80 -4.35 0.70 -94.95 -0.10 -99.15 -0.95 -4.95 -3.10 -6.65 -8.35 -6.65 l-3 0 0 -3.75 0 -3.75 13.75 0 13.75 0 0.25 1.40 c0.15 0.75 0.50 2.20 0.75 3.25 0.30 1 0.75 2.75 1 3.85 0.30 1.10 0.75 2.90 1 4 0.30 1.10 0.70 2.85 0.95 3.90 0.25 1 0.70 2.80 1 4 0.70 2.70 1.40 5.60 2 8 0.25 1 0.70 2.80 1 4 0.30 1.15 0.80 3 1.05 4.10 0.30 1.10 0.70 2.85 0.95 3.90 0.25 1 0.70 2.75 1 3.85 0.25 1.10 0.75 3.15 1.10 4.50 0.30 1.40 0.75 3.20 1 4 0.25 0.85 2.45 9.85 4.95 20 2.50 10.20 4.70 19.20 4.95 20 0.45 1.55 1.30 5.05 1.80 7.40 0.15 0.75 0.50 1.35 0.75 1.35 0.25 0 0.60 -0.60 0.75 -1.35 0.80 -3.75 1.45 -6.45 2.80 -11.75 0.30 -1.20 0.70 -2.95 0.95 -3.90 0.25 -0.95 0.65 -2.65 0.95 -3.75 0.25 -1.10 0.75 -3.10 1.05 -4.50 0.30 -1.35 0.80 -3.40 1.05 -4.50 0.55 -2 1.15 -4.45 1.95 -7.75 0.25 -0.95 0.90 -3.75 1.50 -6.25 1.05 -4.55 1.50 -6.25 2.45 -10.10 0.30 -1.20 0.80 -3.05 1.05 -4.15 0.30 -1.10 0.70 -2.85 1 -3.85 0.25 -1.05 0.90 -3.90 1.50 -6.40 0.60 -2.45 1.25 -5.35 1.50 -6.35 0.30 -1.05 0.70 -2.75 1 -3.75 0.25 -1.05 0.90 -3.90 1.50 -6.40 0.60 -2.45 1.25 -5.35 1.50 -6.35 0.30 -1.05 0.70 -2.75 0.95 -3.75 0.30 -1.05 0.80 -2.95 1.15 -4.25 l0.60 -2.40 12.90 0 12.90 0 0 3.75 0 3.75 -2.20 0 c-3.35 0 -5.60 1.15 -6.90 3.65 l-1.15 2.10 0 51.60 c0 40.60 0.15 51.75 0.65 52.25 0.30 0.30 0.60 0.90 0.60 1.30 0 1.75 2.70 3.10 6.20 3.10 l2.80 0 0 4 0 4 -16.25 0 -16.25 0 0 -4 0 -4 3.20 0 c2.65 0 3.35 -0.20 4.45 -1.20 3 -2.75 2.85 -0.25 2.85 -55.20 0 -27.65 -0.15 -50.15 -0.30 -49.95 -0.20 0.15 -0.55 1.30 -0.80 2.45 -1.10 5.25 -1.55 7.10 -2.90 12.30 -0.25 1 -0.70 2.85 -1 4.10 -0.30 1.25 -0.75 3.05 -1 4 -0.25 0.95 -0.70 2.90 -1 4.25 -0.35 1.40 -0.80 3.30 -1.05 4.25 -0.90 3.80 -1.45 6.10 -1.95 7.90 -0.25 1 -0.70 2.85 -1 4.10 -0.30 1.25 -0.75 3.05 -1 4 -0.25 0.95 -0.70 2.90 -1 4.25 -0.35 1.40 -0.80 3.30 -1.05 4.25 -0.20 0.95 -0.65 2.75 -0.95 4 -0.30 1.25 -0.75 3.05 -1 4 -0.75 2.95 -1.40 5.65 -2 8.25 -0.60 2.60 -1.10 4.55 -1.95 8 -0.30 1.10 -0.75 2.95 -1.05 4.15 -0.25 1.15 -0.70 2.95 -1 4 -0.90 3.70 -1.45 5.90 -2 8.35 -0.90 3.90 -1.50 6.30 -3.05 12.40 -0.30 1.15 -0.65 2.85 -0.80 3.75 l-0.25 1.65 -3.05 -0.15 c-3.40 -0.15 -3.10 0.15 -4.25 -4.65 -0.30 -1.10 -0.75 -2.95 -1.05 -4.10 -0.30 -1.20 -0.75 -3.05 -1.05 -4.15 -0.25 -1.10 -0.70 -2.90 -1 -4 -0.25 -1.10 -0.70 -2.90 -1 -4 -0.25 -1.10 -0.70 -2.90 -1 -4 -0.25 -1.10 -0.70 -2.90 -1 -4 -0.25 -1.10 -0.75 -2.95 -1.05 -4.10 -0.30 -1.20 -0.75 -3 -1 -4 -0.25 -1.05 -0.65 -2.80 -0.95 -3.90 -0.25 -1.10 -0.70 -2.90 -1 -4 -0.25 -1.10 -0.70 -2.85 -0.95 -3.85 -0.25 -1.05 -0.70 -2.85 -1 -4 -0.30 -1.20 -0.75 -3.05 -1.05 -4.15 -0.25 -1.10 -0.70 -2.90 -1 -4 -0.25 -1.10 -0.75 -2.95 -1.05 -4.10 -0.30 -1.20 -0.75 -3.05 -1.05 -4.15 -0.25 -1.10 -0.70 -2.80 -0.95 -3.75 -0.20 -0.95 -2.50 -10.20 -5 -20.50 -2.50 -10.30 -4.70 -19.10 -4.90 -19.50 -0.15 -0.40 -0.35 21.15 -0.45 47.90 -0.10 42.65 0 49 0.65 51.35 1.30 4.35 3.15 5.75 7.75 5.75 l3 0 0 4 0 4 -15.25 0 -15.25 0 0 -4z"/>
 </g>
</svg>