<?xml version="1.0" encoding="UTF-8" standalone="no"?>
<svg
   xmlns:dc="http://purl.org/dc/elements/1.1/"
   xmlns:cc="http://creativecommons.org/ns#"
   xmlns:rdf="http://www.w3.org/1999/02/22-rdf-syntax-ns#"
   xmlns:svg="http://www.w3.org/2000/svg"
   xmlns="http://www.w3.org/2000/svg"
   viewBox="0 0 1484.6267 550.37335"
   height="550.37335"
   width="1484.6267"
   xml:space="preserve"
   id="svg2"
   version="1.1"><metadata
     id="metadata8"><rdf:RDF><cc:Work
         rdf:about=""><dc:format>image/svg+xml</dc:format><dc:type
           rdf:resource="http://purl.org/dc/dcmitype/StillImage" /></cc:Work></rdf:RDF></metadata><defs
     id="defs6" /><g
     transform="matrix(1.3333333,0,0,-1.3333333,0,550.37333)"
     id="g10"><g
       transform="scale(0.1)"
       id="g12"><path
         id="path14"
         style="fill:#374689;fill-opacity:1;fill-rule:nonzero;stroke:none"
         d="M 0.00390625,3099.95 H 429.57 L 831.027,1490.32 1223.23,3099.95 h 414.51 v -122.54 h -35.05 c -42.29,0 -70.7,-5.35 -85.43,-15.99 -14.51,-10.86 -26.16,-29.66 -34.49,-56.45 -8.57,-26.92 -12.7,-71.22 -12.7,-132.81 V 1432.09 c 0,-84.43 3.35,-139.37 10.14,-164.66 6.75,-25.23 18.21,-44.36 34.25,-57.45 15.79,-13.21 45.25,-19.78 88.23,-19.78 h 35.05 v -122.23 h -519.56 v 122.23 h 36.86 c 33.29,0 57.45,3.99 72.73,11.71 15.21,7.8 27.94,20.73 38.04,38.66 10,17.93 15.72,36.64 17.12,56.01 3.21,39.79 4.74,70.86 4.74,93.29 v 1495.9 L 843.535,1067.97 h -97.41 L 299.344,2859.54 V 1420.51 c 0,-73.51 4.101,-122.93 12.597,-148.87 8.469,-25.94 21.582,-45.94 39.438,-60.08 17.969,-14.14 50.004,-21.36 96.129,-21.36 h 31.215 V 1067.97 H 0.00390625 V 1190.2 H 27.3008 c 46.0664,0 79.0782,7.42 98.9762,21.92 19.821,14.51 33.918,35.23 42.289,62.02 8.383,26.65 12.707,79.31 12.707,157.95 v 1326.93 c 0,74.31 -3.488,123.39 -10.675,147.39 -7.243,23.94 -18.93,41.8 -35.61,53.58 -16.605,11.58 -45.9021,17.42 -88.2341,17.42 H 0.00390625 v 122.54" /><path
         id="path16"
         style="fill:#374689;fill-opacity:1;fill-rule:nonzero;stroke:none"
         d="m 1791.26,2814.55 h 844.99 l 97.52,-459.51 -65.54,-41.37 c -16.34,75.22 -34.31,134.16 -53.76,177.18 -19.33,42.85 -42.58,79.49 -69.66,109.51 -27.08,30.08 -54.58,50.09 -82.16,60.16 -27.57,9.93 -77.41,15.06 -149.45,15.06 h -252.29 v -639.89 h 125.53 c 46.35,0 81.26,13.08 104.96,39.5 23.69,26.3 39.95,59.03 49.01,98.16 6.97,29.22 10.47,80.18 10.47,152.74 v 28.95 h 73.02 V 1588.7 h -73.02 v 66.43 c 0,58.45 -2.65,100.59 -7.89,126.32 -5.36,25.92 -14.79,50.44 -28.75,73.36 -13.91,22.92 -29.12,38.64 -45.24,46.93 -16.21,8.43 -43.81,12.51 -82.56,12.51 h -125.53 v -567.39 c 0,-59.13 1.61,-95.08 4.97,-108.14 3.07,-12.95 8.46,-22.17 15.92,-28.16 7.55,-5.71 27.97,-8.7 61.15,-8.7 h 156.08 c 87.05,0 155.02,17.57 204.1,52.63 49.01,35.01 92.01,88.6 129.27,161.03 29.32,56.58 57.54,136.46 84.33,239.61 l 67.79,-40 -116.29,-547.16 h -876.97 v 105.22 h 29.75 c 34.69,0 56.41,3.58 64.83,11.15 13,10.73 22.91,28.15 29.75,52.09 5.09,16.65 7.55,52.78 7.55,108.21 v 1203.21 c 0,54.66 -3.28,91.3 -9.72,109.72 -6.5,18.45 -17.65,32.73 -33.44,42.88 -8.57,5.93 -38.12,8.86 -88.72,8.86 v 105.24" /><path
         id="path18"
         style="fill:#374689;fill-opacity:1;fill-rule:nonzero;stroke:none"
         d="m 2887.38,2814.55 h 403.13 v -105.24 h -37.36 c -28.78,0 -49.04,-4.65 -61.13,-13.94 -11.83,-9.28 -20.62,-22.71 -25.95,-40.35 -5.48,-17.73 -8.21,-49.23 -8.21,-94.68 V 1342.08 c 0,-55.87 1.27,-89.3 3.74,-100.15 2.84,-14.94 9.37,-25.8 19.32,-32.5 6.97,-5.16 27.15,-7.57 60.44,-7.57 h 55.97 c 64.01,0 119.51,15.69 166.77,46.91 47.2,31.37 87.96,76.89 122.16,136.53 34.34,59.59 67.3,148.74 99.14,267.33 l 66.21,-37.5 -116.05,-547.16 h -748.18 v 105.22 h 32.75 c 31.76,0 53.1,4.43 64.07,13.73 10.89,9.15 19.31,24.35 25.33,45.57 6,21.37 9.01,57.79 9.01,109.59 v 1188.26 c 0,60.44 -2.87,101.03 -8.24,121.52 -5.52,20.73 -13.47,35.3 -23.89,44.16 -10.31,8.86 -32.49,13.29 -66.28,13.29 h -32.75 v 105.24" /><path
         id="path20"
         style="fill:#374689;fill-opacity:1;fill-rule:nonzero;stroke:none"
         d="m 5511,2678.01 v -657.25 h 214.29 c 72.67,0 123.68,7.44 153.04,22.43 41.64,20.08 74.79,56.87 98.78,110.09 24.14,53.58 36.3,121.59 36.3,204.18 0,70.09 -8.86,129.23 -26.28,177.23 -17.35,47.87 -41.09,83.88 -71.15,107.67 -30.17,23.73 -75.04,35.65 -134.9,35.65 z m -269.58,136.54 h 536.46 c 101.8,0 178.79,-17.81 231.03,-53.24 52.09,-35.58 92.31,-87.02 120.37,-154.1 28.03,-67.14 42,-145.03 42,-233.45 0,-90.89 -13.57,-171.75 -40.98,-242.26 -27.45,-70.6 -66.87,-126.03 -118.45,-166.54 -51.58,-40.49 -119.9,-61.51 -205.18,-63.22 l 275.24,-563.53 c 22.36,-46.57 36.95,-75.43 43.89,-86.28 17.49,-25.86 35.72,-45.52 54.78,-58.81 19.13,-13.43 40.58,-20 64.43,-20 h 18.59 v -105.15 h -236.62 l -382.36,833.77 H 5511 v -538.36 c 0,-60.08 1.34,-97.74 3.85,-112.67 5.37,-28.3 14.22,-48.44 26.46,-60.07 12.12,-11.73 35.83,-17.52 71.19,-17.52 h 26.71 v -105.15 h -397.79 v 105.15 h 35.73 c 26.82,0 44.82,2.79 54.05,8.71 9.22,5.94 17.17,16.08 24.57,30.73 7.19,14.65 12.27,33.14 15.21,55.65 1.13,9.29 1.75,51.37 2.22,126.53 v 1143.04 c 0,50.72 -2.94,87.16 -8.86,109.16 -5.99,22.14 -14.3,37.93 -25.12,47.72 -10.53,9.71 -29.12,14.65 -55.36,14.65 h -42.44 v 105.24" /><path
         id="path22"
         style="fill:#374689;fill-opacity:1;fill-rule:nonzero;stroke:none"
         d="m 6891.25,2709.38 c -77.64,0 -144.37,-29.93 -200.02,-89.67 -55.87,-59.57 -100.59,-147.45 -134.17,-263.47 -33.58,-116.08 -50.35,-259.1 -50.35,-429.43 0,-162.81 16.49,-300.75 49.66,-413.76 33.14,-113.18 77.43,-199.68 133.15,-259.85 55.87,-60.08 118.53,-90.08 188.27,-90.08 69.18,0 130.49,29.36 183.72,88.16 53.07,58.86 97.17,151.59 132.1,277.9 34.77,126.6 52.27,266.91 52.27,421.42 0,156.88 -17.5,300.49 -52.27,430.72 -29.88,111.81 -69.38,194.4 -118.74,247.84 -49.3,53.43 -110.43,80.22 -183.62,80.22 m 0.29,135.24 c 94.9,0 180.75,-38.52 257.27,-115.31 83.02,-82.66 146.81,-189.82 191.38,-321.71 44.43,-131.93 66.58,-284.67 66.58,-458.21 0,-268.9 -49.7,-487.92 -149.02,-657.31 -99.5,-169.46 -226.16,-254.19 -380.33,-254.19 -172.03,0 -308.35,101.8 -408.8,305.48 -81.92,166.03 -122.87,364.78 -122.87,596.02 0,171.82 23.01,326.06 69.3,462.64 46.07,136.32 111.81,244.26 196.9,323.48 85.01,79.31 178.24,119.11 279.59,119.11" /><path
         id="path24"
         style="fill:#374689;fill-opacity:1;fill-rule:nonzero;stroke:none"
         d="m 9012.53,2814.55 h 845.02 l 97.58,-459.51 -65.67,-41.37 c -16.26,75.22 -34.05,134.16 -53.66,177.18 -19.26,42.85 -42.58,79.49 -69.62,109.51 -27.15,30.08 -54.6,50.09 -82.12,60.16 -27.61,9.93 -77.56,15.06 -149.66,15.06 h -252.15 v -639.89 h 125.42 c 46.42,0 81.46,13.08 105.09,39.5 23.52,26.3 39.93,59.03 49.01,98.16 6.93,29.22 10.38,80.18 10.38,152.74 v 28.95 h 73.08 V 1588.7 h -73.08 v 66.43 c 0,58.45 -2.72,100.59 -7.87,126.32 -5.3,25.92 -14.71,50.44 -28.8,73.36 -13.94,22.92 -28.86,38.64 -45.3,46.93 -16.01,8.43 -43.64,12.51 -82.51,12.51 h -125.42 v -567.39 c 0,-59.13 1.78,-95.08 4.9,-108.14 3.15,-12.95 8.5,-22.17 16.01,-28.16 7.44,-5.71 27.88,-8.7 61.09,-8.7 h 156.09 c 86.95,0 155.01,17.57 204.1,52.63 48.93,35.01 92.1,88.6 129.37,161.03 29.38,56.58 57.39,136.46 84.22,239.61 l 67.77,-40 -116.34,-547.16 h -876.93 v 105.22 h 29.73 c 34.77,0 56.44,3.58 64.94,11.15 12.85,10.73 22.8,28.15 29.74,52.09 4.89,16.65 7.4,52.78 7.4,108.21 v 1203.21 c 0,54.66 -3.05,91.3 -9.62,109.72 -6.43,18.45 -17.57,32.73 -33.51,42.88 -8.49,5.93 -38.01,8.86 -88.68,8.86 v 105.24" /><path
         id="path26"
         style="fill:#374689;fill-opacity:1;fill-rule:nonzero;stroke:none"
         d="m 10382.1,2678.01 v -657.25 h 214.2 c 72.7,0 123.6,7.44 153,22.43 41.7,20.08 74.7,56.87 98.9,110.09 24.2,53.58 36.2,121.59 36.2,204.18 0,70.09 -8.7,129.23 -26.1,177.23 -17.5,47.87 -41.2,83.88 -71.2,107.67 -30.3,23.73 -75.1,35.65 -134.8,35.65 z m -269.8,136.54 h 536.5 c 102,0 179,-17.81 231.2,-53.24 52.1,-35.58 92.2,-87.02 120.2,-154.1 28.1,-67.14 42.2,-145.03 42.2,-233.45 0,-90.89 -13.7,-171.75 -41.2,-242.26 -27.3,-70.6 -66.8,-126.03 -118.3,-166.54 -51.7,-40.49 -119.9,-61.51 -205.1,-63.22 l 275.1,-563.53 c 22.4,-46.57 37,-75.43 44,-86.28 17.3,-25.86 35.6,-45.52 54.8,-58.81 19.1,-13.43 40.5,-20 64.3,-20 h 18.7 v -105.15 h -236.9 l -382.1,833.77 h -133.6 v -538.36 c 0,-60.08 1.2,-97.74 3.8,-112.67 5.4,-28.3 14.1,-48.44 26.4,-60.07 12.2,-11.73 35.9,-17.52 71.2,-17.52 h 26.8 v -105.15 h -398 v 105.15 h 35.8 c 26.8,0 44.8,2.79 54,8.71 9.2,5.94 17.5,16.08 24.7,30.73 7.2,14.65 12.2,33.14 15.2,55.65 1,9.29 1.8,51.37 2.2,126.53 v 1143.04 c 0,50.72 -2.9,87.16 -8.9,109.16 -5.9,22.14 -14.3,37.93 -24.9,47.72 -10.8,9.71 -29.2,14.65 -55.7,14.65 h -42.4 v 105.24" /><path
         id="path28"
         style="fill:#374689;fill-opacity:1;fill-rule:nonzero;stroke:none"
         d="m 4122.29,3126.08 c 15.13,41.3 12.66,96.8 53.18,117.95 164.15,19.08 276.62,19.51 413.43,9.65 8.1,59.65 -4.93,358.21 -0.97,445.08 4.89,102.29 125.16,32.85 154.42,33.29 47.12,-77.53 89.2,-228.26 97.98,-484.23 100.66,-9.29 292.08,14.72 457.03,15.79 45.89,0.37 132.14,-5.72 162.27,-4.72 30.24,0.85 34.71,-124.66 34.71,-124.66 0,0 -605.15,-145.73 -632.3,-165.68 -51.81,-37.64 -29.59,-549.51 -24.51,-850.63 5.56,-333.19 51.73,-676.82 76.67,-949.65 -14.12,-172.879 -329.91,-148.88 -330.09,-73.58 -0.14,157.02 -2.9,372.68 -10.74,564.24 -5.96,146.87 12.52,447.78 12.52,447.78 0,0 22.51,598.32 1.02,861.35 -127.13,66.73 -439.18,80.67 -464.62,158.02" /><path
         id="path30"
         style="fill:#374689;fill-opacity:1;fill-rule:nonzero;stroke:none"
         d="m 8347.59,3404.43 c -15.86,47.2 -14.08,110.23 -55.1,134.95 -164.74,24.42 -277.17,26.57 -414.2,17.64 -9,68.15 -0.51,407.41 -5.7,506.29 -6.47,116.51 -125.97,39.43 -155.19,40.23 -45.99,-87.31 9.73,-540.17 -90.86,-549.17 -100.74,-8.93 -292.92,21.36 -458.24,25.57 -45.99,1.07 -132.14,-4.42 -162.45,-2.92 -30.34,1.36 -32.85,-141.25 -32.85,-141.25 0,0 608.45,-175.37 636.04,-198.51 52.2,-43.73 37.93,-625.7 37.21,-967.96 -0.51,-379.06 -41.57,-768.98 -62.36,-1079.1 16.62,-196.751 332.77,-174.59 331.68,-88.94 -2.21,178.73 -2.65,423.93 2.14,641.59 3.88,166.97 -19.13,509.6 -19.13,509.6 0,0 -31.44,680.82 -14.02,979.73 126.34,73.87 438.61,84.51 463.03,172.25" /><path
         id="path32"
         style="fill:#374689;fill-opacity:1;fill-rule:nonzero;stroke:none"
         d="m 8939.23,2903.62 c -6.56,38.65 -1.34,88.02 -24.65,111.09 -98.77,34.36 -167.16,46.3 -251.31,51.8 -0.94,54.37 26.72,320.05 30.1,398.07 3.62,92.08 -74.24,42.43 -92.03,45.92 -33.87,-64.29 -69.3,-194.88 -91.51,-422.91 -62.01,2.14 -177.12,43.71 -277.49,62.07 -28.07,5.02 -80.88,8.57 -99.21,12.58 -18.37,3.77 -29.38,-107.94 -29.38,-107.94 0,0 359.06,-193.47 374.49,-214.18 29.01,-39.15 -18.3,-494.73 -41.17,-763.42 -25.26,-297.69 -76.04,-600.03 -109.44,-841.63 -2.54,-156.09 191.41,-167.61 196.32,-100.3 10.59,140.67 26.38,333.04 43.81,503.64 13.36,130.74 21.85,401.93 21.85,401.93 0,0 25.74,537.38 56.16,770.63 81.86,46.43 272.85,26.21 293.46,92.65" /><path
         id="path34"
         style="fill:#374689;fill-opacity:1;fill-rule:nonzero;stroke:none"
         d="m 795.637,17.5 h -96.778 c 0,79.2305 -5.214,193.98 -15.957,344 -10.687,150.082 -16.336,240.102 -17.043,269.969 h -5.046 C 626.418,515.879 582.871,390.422 530.234,255.109 477.473,119.879 451.207,40.7305 451.207,17.5 h -69.57 c 0,24.9297 -24.574,105.531 -73.657,241.922 -48.933,136.359 -80.191,227.598 -93.203,273.879 -13.031,46.23 -21.922,78.937 -26.718,98.168 h -5.172 C 181.852,582.75 175.066,484.379 162.488,336.48 149.965,188.461 143.805,82.2305 143.805,17.5 H 55.2109 c 0,3.6602 11.6563,101.391 35.0508,293.691 23.2503,192.188 34.9723,325.707 34.9723,400.719 h 135.407 c 0,-39.148 27.449,-136.949 82.371,-293.328 54.945,-156.461 82.461,-251.262 82.461,-284.121 h 5.136 c 0,32.859 30.86,127.937 92.661,284.969 61.816,156.949 92.695,254.55 92.695,292.48 h 132.262 c 0,-75.012 7.972,-207.969 23.796,-398.859 C 787.816,122.172 795.637,23.6016 795.637,17.5" /><path
         id="path36"
         style="fill:#374689;fill-opacity:1;fill-rule:nonzero;stroke:none"
         d="m 1729.71,17.5 h -97.87 c 5.1,115.242 7.61,236.832 7.61,364.852 0,125.82 -2.51,235.679 -7.61,329.558 h 97.87 c -4.76,-97.019 -7.24,-206.898 -7.24,-329.558 0,-128.661 2.48,-250.25 7.24,-364.852" /><path
         id="path38"
         style="fill:#374689;fill-opacity:1;fill-rule:nonzero;stroke:none"
         d="m 3094.19,17.5 h -72.06 c 0,6.1016 -56.26,91.309 -168.98,255.539 -117.82,172.402 -184.88,281.191 -201.33,326.422 h -5.06 c 6.13,-85.723 9.22,-159.18 9.22,-220.332 0,-119.449 2.48,-239.969 7.67,-361.629 h -86.45 c 5.83,115.531 8.68,237.191 8.68,364.852 0,125.519 -2.85,235.25 -8.68,329.558 h 98.87 c 0,-9.859 51.8,-90.949 155.39,-243.191 108.6,-159.957 170.38,-264.11 185.37,-312.481 h 5.3 c -5.84,86.731 -8.78,160.242 -8.78,220.75 0,131.532 -2.43,243.192 -7.26,334.922 h 88.1 c -5.88,-94.308 -8.79,-204.039 -8.79,-329.558 0,-127.661 2.91,-249.321 8.79,-364.852" /><path
         id="path40"
         style="fill:#374689;fill-opacity:1;fill-rule:nonzero;stroke:none"
         d="m 4039.48,17.5 h -97.87 c 5.3,115.242 7.74,236.832 7.74,364.852 0,125.82 -2.44,235.679 -7.74,329.558 h 97.87 c -4.82,-97.019 -7.15,-206.898 -7.15,-329.558 0,-128.661 2.33,-250.25 7.15,-364.852" /><path
         id="path42"
         style="fill:#374689;fill-opacity:1;fill-rule:nonzero;stroke:none"
         d="M 5278.3,197.172 C 5278.3,65.6602 5189.91,0 5013.09,0 4948.47,0 4891.22,7.51172 4841.13,22.8711 l 18.04,83.7309 c 57.64,-20.6528 112.35,-30.9418 164.16,-30.9418 116.85,0 175.11,34.0778 175.11,102.3788 0,34.512 -15.06,64.07 -45.34,88.57 -20.18,16.36 -60.04,38.243 -119.47,65.59 -62.4,28.789 -106.22,55.231 -131.3,79.512 -34.67,33.371 -52.02,75.309 -52.02,125.879 0,52.59 17.79,95.379 53.14,128.519 39.47,36.942 95.22,55.43 167.28,55.43 81.79,0 137.62,-5.559 167.97,-16.57 l -12.45,-84.789 c -52.09,17.082 -107.6,25.57 -166.3,25.57 -88.28,0 -132.32,-30.559 -132.32,-91.73 0,-29.43 12.67,-54.219 38.05,-74.008 16.44,-12.43 52.89,-31.43 109.23,-56.59 64.21,-28.711 110.54,-56.211 139.03,-82.082 42.87,-39.219 64.36,-87.16 64.36,-144.168" /><path
         id="path44"
         style="fill:#374689;fill-opacity:1;fill-rule:nonzero;stroke:none"
         d="m 6508.85,711.91 -2.58,-75.16 c -67.92,3.57 -138.08,5.422 -210.55,5.422 -0.68,-68.352 -1.12,-154.953 -1.12,-259.891 0,-115.883 1.71,-237.402 5.3,-364.7107 h -94.31 c 4.14,121.2497 6.13,242.7617 6.13,364.7107 0,103.52 -0.98,190.098 -3.01,259.891 -50.86,0 -122.3,-2.211 -214.22,-6.492 l 2.62,76.23 h 511.74" /><path
         id="path46"
         style="fill:#374689;fill-opacity:1;fill-rule:nonzero;stroke:none"
         d="m 7621.09,517.801 c 0,84.578 -55.29,126.961 -165.86,126.961 -39.46,0 -72.6,-2.301 -99.39,-6.953 2.36,-61.848 3.66,-146.09 3.66,-252.25 20.55,-0.778 40.26,-1.118 59.28,-1.118 134.76,0 202.31,44.579 202.31,133.36 M 7778.71,17.5 h -99.54 c -32.92,102.02 -56.91,169.672 -71.94,202.621 -19.28,41.629 -41.07,68.488 -65.49,80.641 -19.24,9.578 -53.66,14.449 -103.54,14.449 -29.15,0 -55.06,-0.441 -77.72,-1.152 0,-114.797 2.07,-213.688 6.13,-296.559 h -95.72 c 5.16,110.309 7.73,231.91 7.73,364.852 0,125.238 -2.57,234.98 -7.73,329.628 h 72.53 c 15.58,0 35,0.559 58.78,1.489 23.66,1.222 50.89,1.73 81.31,1.73 150.4,0 225.69,-53.801 225.69,-161.109 0,-89.238 -42.29,-152.02 -126.73,-188.391 v -5.207 c 37.79,-11.781 68.35,-38.933 91.62,-81.582 19.6,-35.578 54.38,-122.738 104.62,-261.41" /><path
         id="path48"
         style="fill:#374689;fill-opacity:1;fill-rule:nonzero;stroke:none"
         d="m 8661.2,17.5 h -97.94 c 5.19,115.242 7.85,236.832 7.85,364.852 0,125.82 -2.66,235.679 -7.85,329.558 h 97.94 c -4.86,-97.019 -7.29,-206.898 -7.29,-329.558 0,-128.661 2.43,-250.25 7.29,-364.852" /><path
         id="path50"
         style="fill:#374689;fill-opacity:1;fill-rule:nonzero;stroke:none"
         d="M 9926.78,98.0898 9923.69,17.5 h -415.07 c 4.87,110.309 7.22,231.91 7.22,364.781 0,125.231 -2.35,235.051 -7.22,329.699 h 389.41 l -4.29,-79.589 c -94.34,4.359 -194.35,6.429 -300.17,6.429 2.07,-55.148 3.16,-129.578 3.16,-223.461 91.3,0 172.65,2.141 244.01,6.352 V 342.27 c -76.23,3.289 -157.58,4.859 -244.01,4.859 0,-91.367 1.42,-177.02 4.53,-256.9688 114.03,0 222.49,2.5 325.52,7.9296" /><path
         id="path52"
         style="fill:#374689;fill-opacity:1;fill-rule:nonzero;stroke:none"
         d="M 11102.7,197.172 C 11102.7,65.6602 11014.4,0 10837.5,0 c -64.5,0 -121.8,7.51172 -171.8,22.8711 l 17.8,83.7309 c 57.8,-20.6528 112.6,-30.9418 164.4,-30.9418 116.7,0 175,34.0778 175,102.3788 0,34.512 -15.1,64.07 -45.3,88.57 -20.2,16.36 -60.1,38.243 -119.5,65.59 -62.5,28.789 -106.3,55.231 -131.3,79.512 -34.7,33.371 -52,75.309 -52,125.879 0,52.59 17.8,95.379 53.1,128.519 39.4,36.942 95.2,55.43 167.3,55.43 81.7,0 137.7,-5.559 167.9,-16.57 l -12.4,-84.789 c -52.1,17.082 -107.6,25.57 -166.3,25.57 -88.3,0 -132.3,-30.559 -132.3,-91.73 0,-29.43 12.7,-54.219 38,-74.008 16.4,-12.43 53,-31.43 109.2,-56.59 64.3,-28.711 110.6,-56.211 139.1,-82.082 42.8,-39.219 64.3,-87.16 64.3,-144.168" /></g></g></svg>