<?xml version="1.0" encoding="UTF-8" standalone="no"?>
<svg
   xmlns:dc="http://purl.org/dc/elements/1.1/"
   xmlns:cc="http://creativecommons.org/ns#"
   xmlns:rdf="http://www.w3.org/1999/02/22-rdf-syntax-ns#"
   xmlns:svg="http://www.w3.org/2000/svg"
   xmlns="http://www.w3.org/2000/svg"
   viewBox="0 0 1490.9867 552.73334"
   height="552.73334"
   width="1490.9867"
   xml:space="preserve"
   id="svg2"
   version="1.1"><metadata
     id="metadata8"><rdf:RDF><cc:Work
         rdf:about=""><dc:format>image/svg+xml</dc:format><dc:type
           rdf:resource="http://purl.org/dc/dcmitype/StillImage" /></cc:Work></rdf:RDF></metadata><defs
     id="defs6" /><g
     transform="matrix(1.3333333,0,0,-1.3333333,0,552.73333)"
     id="g10"><g
       transform="scale(0.1)"
       id="g12"><path
         id="path14"
         style="fill:#231f20;fill-opacity:1;fill-rule:nonzero;stroke:none"
         d="M 0,3113.22 H 431.406 L 834.582,1496.7 1228.47,3113.22 h 416.28 v -123.06 h -35.2 c -42.47,0 -71,-5.38 -85.8,-16.06 -14.57,-10.9 -26.27,-29.79 -34.64,-56.69 -8.6,-27.03 -12.75,-71.53 -12.75,-133.38 V 1438.22 c 0,-84.8 3.37,-139.97 10.18,-165.36 6.78,-25.34 18.29,-44.55 34.4,-57.7 15.86,-13.26 45.45,-19.87 88.61,-19.87 h 35.2 v -122.74 h -521.79 v 122.74 h 37.02 c 33.43,0 57.7,4.01 73.05,11.76 15.27,7.84 28.05,20.82 38.2,38.83 10.04,18.01 15.78,36.8 17.19,56.25 3.23,39.96 4.76,71.17 4.76,93.7 V 2898.12 L 847.148,1072.55 H 749.316 L 300.629,2871.78 V 1426.6 c 0,-73.83 4.117,-123.46 12.644,-149.51 8.516,-26.05 21.68,-46.14 39.61,-60.34 18.047,-14.2 50.215,-21.46 96.543,-21.46 h 31.347 V 1072.55 H 0 v 122.74 h 27.4141 c 46.2578,0 79.4259,7.46 99.4019,22.03 19.903,14.56 34.067,35.38 42.473,62.28 8.418,26.76 12.762,79.64 12.762,158.62 v 1332.61 c 0,74.63 -3.504,123.92 -10.723,148.02 -7.273,24.04 -19.012,41.98 -35.769,53.81 -16.672,11.63 -46.0942,17.5 -88.6059,17.5 H 0 v 123.06" /><path
         id="path16"
         style="fill:#231f20;fill-opacity:1;fill-rule:nonzero;stroke:none"
         d="m 1798.93,2826.59 h 848.6 l 97.94,-461.47 -65.82,-41.54 c -16.41,75.54 -34.45,134.73 -53.99,177.93 -19.42,43.04 -42.77,79.84 -69.96,109.99 -27.2,30.2 -54.82,50.29 -82.5,60.41 -27.69,9.97 -77.75,15.13 -150.1,15.13 h -253.37 v -642.63 h 126.06 c 46.56,0 81.61,13.13 105.42,39.66 23.79,26.42 40.12,59.29 49.21,98.58 7,29.35 10.53,80.52 10.53,153.4 v 29.07 h 73.33 V 1595.5 h -73.33 v 66.71 c 0,58.71 -2.67,101.03 -7.93,126.86 -5.38,26.04 -14.86,50.65 -28.88,73.68 -13.96,23.02 -29.24,38.81 -45.43,47.13 -16.28,8.47 -44,12.56 -82.92,12.56 h -126.06 v -569.81 c 0,-59.4 1.62,-95.48 4.99,-108.61 3.08,-13 8.49,-22.26 15.98,-28.28 7.59,-5.73 28.1,-8.74 61.42,-8.74 h 156.75 c 87.42,0 155.68,17.64 204.98,52.86 49.21,35.17 92.39,88.97 129.81,161.72 29.45,56.82 57.8,137.04 84.7,240.63 l 68.08,-40.17 -116.79,-549.49 h -880.72 v 105.66 h 29.87 c 34.83,0 56.66,3.6 65.12,11.2 13.04,10.77 23,28.27 29.87,52.31 5.11,16.72 7.58,53.01 7.58,108.68 v 1208.36 c 0,54.89 -3.29,91.69 -9.77,110.19 -6.52,18.52 -17.71,32.87 -33.57,43.06 -8.6,5.96 -38.28,8.9 -89.1,8.9 v 105.68" /><path
         id="path18"
         style="fill:#231f20;fill-opacity:1;fill-rule:nonzero;stroke:none"
         d="m 2899.74,2826.59 h 404.85 v -105.68 h -37.51 c -28.91,0 -49.26,-4.67 -61.39,-14 -11.89,-9.32 -20.71,-22.81 -26.07,-40.53 -5.51,-17.8 -8.24,-49.43 -8.24,-95.07 V 1347.83 c 0,-56.1 1.28,-89.68 3.76,-100.58 2.84,-15.01 9.4,-25.91 19.39,-32.65 7,-5.18 27.27,-7.6 60.71,-7.6 h 56.21 c 64.27,0 120.02,15.77 167.48,47.12 47.39,31.5 88.34,77.21 122.68,137.11 34.49,59.85 67.59,149.39 99.56,268.47 l 66.5,-37.66 -116.56,-549.49 h -751.37 v 105.66 h 32.89 c 31.89,0 53.33,4.45 64.34,13.78 10.94,9.19 19.4,24.47 25.44,45.78 6.03,21.45 9.05,58.04 9.05,110.06 v 1193.34 c 0,60.7 -2.88,101.46 -8.27,122.04 -5.55,20.82 -13.53,35.45 -23.99,44.35 -10.36,8.9 -32.64,13.35 -66.57,13.35 h -32.89 v 105.68" /><path
         id="path20"
         style="fill:#231f20;fill-opacity:1;fill-rule:nonzero;stroke:none"
         d="m 5534.58,2689.48 v -660.07 h 215.21 c 72.99,0 124.21,7.48 153.7,22.53 41.82,20.16 75.11,57.11 99.21,110.56 24.24,53.81 36.45,122.11 36.45,205.05 0,70.4 -8.89,129.78 -26.39,177.99 -17.44,48.08 -41.27,84.24 -71.46,108.14 -30.3,23.82 -75.36,35.8 -135.48,35.8 z m -270.72,137.11 h 538.76 c 102.23,0 179.55,-17.88 232.01,-53.46 52.32,-35.73 92.71,-87.39 120.89,-154.76 28.14,-67.43 42.18,-145.64 42.18,-234.45 0,-91.28 -13.64,-172.48 -41.16,-243.3 -27.56,-70.89 -67.15,-126.56 -118.96,-167.24 -51.81,-40.67 -120.42,-61.78 -206.05,-63.5 l 276.41,-565.93 c 22.46,-46.78 37.11,-75.76 44.08,-86.66 17.57,-25.97 35.87,-45.72 55.01,-59.06 19.21,-13.49 40.76,-20.09 64.71,-20.09 h 18.67 v -105.59 h -237.62 l -384.01,837.33 h -134.2 v -540.66 c 0,-60.34 1.35,-98.17 3.87,-113.15 5.39,-28.42 14.29,-48.65 26.57,-60.34 12.18,-11.77 35.99,-17.59 71.5,-17.59 h 26.83 v -105.59 h -399.49 v 105.59 h 35.87 c 26.94,0 45.03,2.81 54.29,8.75 9.25,5.96 17.24,16.15 24.67,30.87 7.23,14.7 12.33,33.28 15.29,55.88 1.12,9.34 1.74,51.59 2.21,127.07 v 1147.93 c 0,50.94 -2.95,87.54 -8.89,109.63 -6.01,22.24 -14.37,38.1 -25.23,47.93 -10.57,9.75 -29.24,14.71 -55.59,14.71 h -42.62 v 105.68" /><path
         id="path22"
         style="fill:#231f20;fill-opacity:1;fill-rule:nonzero;stroke:none"
         d="m 6920.75,2720.98 c -77.98,0 -144.99,-30.06 -200.88,-90.05 -56.11,-59.82 -101.02,-148.09 -134.74,-264.6 -33.73,-116.58 -50.57,-260.21 -50.57,-431.27 0,-163.51 16.56,-302.05 49.88,-415.53 33.28,-113.66 77.76,-200.53 133.72,-260.96 56.1,-60.34 119.03,-90.47 189.07,-90.47 69.48,0 131.05,29.49 184.5,88.54 53.3,59.11 97.6,152.24 132.67,279.09 34.92,127.14 52.5,268.05 52.5,423.23 0,157.55 -17.58,301.76 -52.5,432.56 -30.01,112.29 -69.67,195.23 -119.25,248.89 -49.51,53.66 -110.91,80.57 -184.4,80.57 m 0.29,135.81 c 95.3,0 181.52,-38.67 258.37,-115.8 83.38,-83.01 147.43,-190.63 192.2,-323.08 44.62,-132.5 66.86,-285.89 66.86,-460.17 0,-270.06 -49.91,-490.02 -149.66,-660.13 -99.92,-170.18 -227.12,-255.27 -381.95,-255.27 -172.77,0 -309.66,102.23 -410.54,306.78 -82.28,166.74 -123.41,366.34 -123.41,598.57 0,172.55 23.12,327.46 69.59,464.63 46.27,136.89 112.3,245.29 197.75,324.86 85.38,79.64 179,119.61 280.79,119.61" /><path
         id="path24"
         style="fill:#231f20;fill-opacity:1;fill-rule:nonzero;stroke:none"
         d="m 9051.11,2826.59 h 848.64 l 97.99,-461.47 -65.95,-41.54 c -16.33,75.54 -34.2,134.73 -53.89,177.93 -19.35,43.04 -42.76,79.84 -69.92,109.99 -27.27,30.2 -54.82,50.29 -82.46,60.41 -27.74,9.97 -77.91,15.13 -150.31,15.13 h -253.24 v -642.63 h 125.97 c 46.62,0 81.81,13.13 105.54,39.66 23.62,26.42 40.1,59.29 49.22,98.58 6.96,29.35 10.43,80.52 10.43,153.4 v 29.07 h 73.38 V 1595.5 h -73.38 v 66.71 c 0,58.71 -2.75,101.03 -7.92,126.86 -5.33,26.04 -14.76,50.65 -28.91,73.68 -14,23.02 -28.98,38.81 -45.5,47.13 -16.08,8.47 -43.82,12.56 -82.86,12.56 h -125.97 v -569.81 c 0,-59.4 1.79,-95.48 4.93,-108.61 3.17,-13 8.53,-22.26 16.07,-28.28 7.48,-5.73 28.01,-8.74 61.37,-8.74 h 156.76 c 87.31,0 155.67,17.64 204.96,52.86 49.15,35.17 92.49,88.97 129.93,161.72 29.49,56.82 57.63,137.04 84.58,240.63 l 68.13,-40.17 -116.91,-549.49 h -880.68 v 105.66 h 29.85 c 34.92,0 56.69,3.6 65.22,11.2 12.91,10.77 22.89,28.27 29.86,52.31 4.92,16.72 7.44,53.01 7.44,108.68 v 1208.36 c 0,54.89 -3.06,91.69 -9.66,110.19 -6.45,18.52 -17.65,32.87 -33.65,43.06 -8.54,5.96 -38.18,8.9 -89.06,8.9 v 105.68" /><path
         id="path26"
         style="fill:#231f20;fill-opacity:1;fill-rule:nonzero;stroke:none"
         d="m 10426.5,2689.48 v -660.07 h 215.1 c 73,0 124.2,7.48 153.7,22.53 41.9,20.16 75.1,57.11 99.3,110.56 24.3,53.81 36.4,122.11 36.4,205.05 0,70.4 -8.8,129.78 -26.3,177.99 -17.5,48.08 -41.3,84.24 -71.5,108.14 -30.3,23.82 -75.4,35.8 -135.3,35.8 z m -270.9,137.11 h 538.8 c 102.4,0 179.7,-17.88 232.2,-53.46 52.3,-35.73 92.6,-87.39 120.7,-154.76 28.2,-67.43 42.3,-145.64 42.3,-234.45 0,-91.28 -13.7,-172.48 -41.3,-243.3 -27.5,-70.89 -67.1,-126.56 -118.9,-167.24 -51.8,-40.67 -120.3,-61.78 -205.9,-63.5 l 276.3,-565.93 c 22.4,-46.78 37.1,-75.76 44.1,-86.66 17.5,-25.97 35.8,-45.72 55.1,-59.06 19.2,-13.49 40.6,-20.09 64.6,-20.09 h 18.8 v -105.59 h -237.9 l -383.8,837.33 h -134.2 v -540.66 c 0,-60.34 1.3,-98.17 3.8,-113.15 5.5,-28.42 14.3,-48.65 26.5,-60.34 12.3,-11.77 36.1,-17.59 71.6,-17.59 h 26.9 v -105.59 h -399.7 v 105.59 h 35.9 c 27,0 45.1,2.81 54.3,8.75 9.2,5.96 17.5,16.15 24.8,30.87 7.2,14.7 12.3,33.28 15.3,55.88 0.9,9.34 1.7,51.59 2.2,127.07 v 1147.93 c 0,50.94 -2.9,87.54 -9,109.63 -5.9,22.24 -14.3,38.1 -25,47.93 -10.9,9.75 -29.3,14.71 -55.9,14.71 h -42.6 v 105.68" /><path
         id="path28"
         style="fill:#231f20;fill-opacity:1;fill-rule:nonzero;stroke:none"
         d="m 4139.93,3139.46 c 15.2,41.48 12.72,97.22 53.41,118.46 164.85,19.15 277.8,19.59 415.21,9.69 8.12,59.9 -4.96,359.74 -0.99,446.98 4.92,102.73 125.7,33 155.09,33.43 47.32,-77.85 89.58,-229.24 98.4,-486.29 101.09,-9.34 293.33,14.78 458.98,15.85 46.09,0.37 132.71,-5.74 162.97,-4.74 30.37,0.86 34.85,-125.19 34.85,-125.19 0,0 -607.73,-146.36 -635.01,-166.39 -52.02,-37.81 -29.7,-551.86 -24.61,-854.28 5.59,-334.61 51.96,-679.71 77.01,-953.7 -14.18,-173.632 -331.32,-149.53 -331.51,-73.9 -0.14,157.69 -2.92,374.28 -10.79,566.65 -5.98,147.5 12.58,449.69 12.58,449.69 0,0 22.6,600.88 1.01,865.05 -127.66,67.01 -441.04,81.01 -466.6,158.69" /><path
         id="path30"
         style="fill:#231f20;fill-opacity:1;fill-rule:nonzero;stroke:none"
         d="m 8383.32,3419 c -15.93,47.41 -14.14,110.7 -55.34,135.53 -165.44,24.53 -278.35,26.68 -415.97,17.71 -9.04,68.46 -0.51,409.16 -5.72,508.47 -6.49,117.01 -126.51,39.59 -155.86,40.39 -46.19,-87.67 9.78,-542.47 -91.25,-551.52 -101.17,-8.96 -294.17,21.46 -460.19,25.69 -46.2,1.07 -132.71,-4.45 -163.15,-2.93 -30.48,1.36 -32.99,-141.86 -32.99,-141.86 0,0 611.05,-176.12 638.75,-199.37 52.44,-43.91 38.11,-628.36 37.38,-972.1 -0.51,-380.68 -41.75,-772.26 -62.63,-1083.72 16.69,-197.591 334.19,-175.33 333.1,-89.32 -2.22,179.5 -2.66,425.75 2.15,644.34 3.9,167.69 -19.22,511.79 -19.22,511.79 0,0 -31.57,683.73 -14.07,983.91 126.88,74.19 440.48,84.88 465.01,172.99" /><path
         id="path32"
         style="fill:#231f20;fill-opacity:1;fill-rule:nonzero;stroke:none"
         d="m 8977.49,2916.06 c -6.59,38.81 -1.35,88.39 -24.74,111.55 -99.2,34.51 -167.88,46.51 -252.4,52.03 -0.94,54.6 26.83,321.42 30.23,399.77 3.64,92.47 -74.56,42.62 -92.42,46.11 -34.02,-64.56 -69.6,-195.71 -91.91,-424.72 -62.27,2.16 -177.88,43.9 -278.68,62.34 -28.18,5.04 -81.22,8.61 -99.63,12.64 -18.46,3.79 -29.5,-108.41 -29.5,-108.41 0,0 360.6,-194.29 376.09,-215.09 29.13,-39.32 -18.38,-496.85 -41.34,-766.69 -25.38,-298.97 -76.38,-602.6 -109.92,-845.24 -2.56,-156.76 192.24,-168.32 197.16,-100.72 10.65,141.27 26.51,334.47 44.01,505.8 13.41,131.3 21.94,403.65 21.94,403.65 0,0 25.85,539.67 56.41,773.92 82.2,46.63 274,26.32 294.7,93.06" /><path
         id="path34"
         style="fill:#231f20;fill-opacity:1;fill-rule:nonzero;stroke:none"
         d="m 799.047,17.582 h -97.199 c 0,79.5586 -5.235,194.797 -16.028,345.457 -10.73,150.731 -16.406,241.152 -17.105,271.133 h -5.07 C 629.102,518.09 585.371,392.102 532.512,256.199 479.512,120.398 453.137,40.9102 453.137,17.582 h -69.864 c 0,25.0391 -24.679,105.977 -73.976,242.938 -49.141,136.949 -80.535,228.589 -93.602,275.07 -13.086,46.43 -22.023,79.281 -26.828,98.582 h -5.195 C 182.629,585.25 175.813,486.449 163.184,337.922 150.605,189.27 144.426,82.5781 144.426,17.582 H 55.4492 c 0,3.6797 11.6992,101.816 35.1953,294.949 23.3515,193 35.1285,327.09 35.1285,402.43 h 135.985 c 0,-39.32 27.558,-137.539 82.726,-294.59 55.176,-157.133 82.813,-252.34 82.813,-285.332 h 5.156 c 0,32.992 30.985,128.492 93.055,286.191 62.082,157.61 93.086,255.629 93.086,293.731 h 132.832 c 0,-75.34 8.008,-208.859 23.898,-400.57 15.86,-191.692 23.723,-290.6918 23.723,-296.809" /><path
         id="path36"
         style="fill:#231f20;fill-opacity:1;fill-rule:nonzero;stroke:none"
         d="m 1737.11,17.582 h -98.28 c 5.12,115.727 7.64,237.84 7.64,366.41 0,126.348 -2.52,236.688 -7.64,330.969 h 98.28 c -4.77,-97.43 -7.27,-207.789 -7.27,-330.969 0,-129.203 2.5,-251.32 7.27,-366.41" /><path
         id="path38"
         style="fill:#231f20;fill-opacity:1;fill-rule:nonzero;stroke:none"
         d="m 3107.43,17.582 h -72.36 c 0,6.1172 -56.51,91.699 -169.71,256.637 -118.32,173.133 -185.67,282.39 -202.18,327.812 h -5.09 c 6.16,-86.09 9.26,-159.859 9.26,-221.269 0,-119.973 2.5,-241 7.7,-363.18 h -86.82 c 5.85,116.02 8.71,238.199 8.71,366.41 0,126.059 -2.86,236.258 -8.71,330.969 h 99.29 c 0,-9.902 52.03,-91.34 156.06,-244.231 109.06,-160.652 171.11,-265.242 186.17,-313.808 h 5.32 c -5.87,87.09 -8.83,160.906 -8.83,221.687 0,132.082 -2.44,244.219 -7.28,336.352 h 88.47 c -5.9,-94.711 -8.82,-204.91 -8.82,-330.969 0,-128.211 2.92,-250.39 8.82,-366.41" /><path
         id="path40"
         style="fill:#231f20;fill-opacity:1;fill-rule:nonzero;stroke:none"
         d="m 4056.77,17.582 h -98.29 c 5.32,115.727 7.77,237.84 7.77,366.41 0,126.348 -2.45,236.688 -7.77,330.969 h 98.29 c -4.84,-97.43 -7.18,-207.789 -7.18,-330.969 0,-129.203 2.34,-251.32 7.18,-366.41" /><path
         id="path42"
         style="fill:#231f20;fill-opacity:1;fill-rule:nonzero;stroke:none"
         d="M 5300.9,198.02 C 5300.9,65.9414 5212.12,0 5034.54,0 4969.65,0 4912.16,7.55078 4861.85,22.9688 l 18.11,84.0902 c 57.9,-20.7504 112.84,-31.0785 164.87,-31.0785 117.35,0 175.87,34.2385 175.87,102.8285 0,34.652 -15.14,64.351 -45.54,88.953 -20.28,16.429 -60.3,38.386 -119.98,65.859 -62.67,28.91 -106.67,55.469 -131.87,79.859 -34.81,33.5 -52.23,75.629 -52.23,126.411 0,52.808 17.86,95.8 53.36,129.078 39.63,37.09 95.63,55.672 167.99,55.672 82.14,0 138.22,-5.602 168.69,-16.653 l -12.5,-85.16 c -52.32,17.16 -108.06,25.692 -167.01,25.692 -88.67,0 -132.89,-30.7 -132.89,-92.129 0,-29.551 12.73,-54.45 38.22,-74.321 16.51,-12.48 53.11,-31.57 109.69,-56.828 64.49,-28.844 111.01,-56.461 139.63,-82.433 43.06,-39.399 64.64,-87.528 64.64,-144.789" /><path
         id="path44"
         style="fill:#231f20;fill-opacity:1;fill-rule:nonzero;stroke:none"
         d="m 6536.71,714.961 -2.59,-75.492 c -68.21,3.59 -138.68,5.453 -211.44,5.453 -0.7,-68.641 -1.14,-155.613 -1.14,-261.012 0,-116.371 1.71,-238.41 5.33,-366.2616 h -94.72 c 4.16,121.7736 6.16,243.8126 6.16,366.2616 0,103.981 -0.98,190.93 -3.02,261.012 -51.08,0 -122.83,-2.223 -215.14,-6.524 l 2.63,76.563 h 513.93" /><path
         id="path46"
         style="fill:#231f20;fill-opacity:1;fill-rule:nonzero;stroke:none"
         d="m 7653.71,520.031 c 0,84.938 -55.52,127.489 -166.57,127.489 -39.63,0 -72.91,-2.301 -99.81,-6.969 2.36,-62.121 3.68,-146.723 3.68,-253.34 20.63,-0.781 40.43,-1.129 59.53,-1.129 135.33,0 203.17,44.77 203.17,133.949 M 7812,17.582 h -99.96 c -33.06,102.457 -57.17,170.387 -72.25,203.477 -19.37,41.812 -41.23,68.8 -65.77,80.992 -19.32,9.621 -53.89,14.508 -103.98,14.508 -29.28,0 -55.3,-0.438 -78.06,-1.149 0,-115.289 2.08,-214.609 6.17,-297.828 h -96.14 c 5.18,110.789 7.77,232.898 7.77,366.41 0,125.77 -2.59,235.977 -7.77,331.039 h 72.85 c 15.64,0 35.14,0.571 59.02,1.5 23.77,1.219 51.11,1.731 81.66,1.731 151.04,0 226.66,-54.032 226.66,-161.801 0,-89.609 -42.48,-152.66 -127.28,-189.191 v -5.231 c 37.95,-11.828 68.66,-39.098 92.02,-81.937 19.68,-35.723 54.61,-123.262 105.06,-262.52" /><path
         id="path48"
         style="fill:#231f20;fill-opacity:1;fill-rule:nonzero;stroke:none"
         d="m 8698.27,17.582 h -98.36 c 5.22,115.727 7.88,237.84 7.88,366.41 0,126.348 -2.66,236.688 -7.88,330.969 h 98.36 c -4.88,-97.43 -7.32,-207.789 -7.32,-330.969 0,-129.203 2.44,-251.32 7.32,-366.41" /><path
         id="path50"
         style="fill:#231f20;fill-opacity:1;fill-rule:nonzero;stroke:none"
         d="m 9969.27,98.5117 -3.1,-80.9297 h -416.85 c 4.89,110.789 7.25,232.898 7.25,366.328 0,125.781 -2.36,236.059 -7.25,331.121 h 391.07 l -4.29,-79.929 c -94.76,4.367 -195.2,6.449 -301.47,6.449 2.08,-55.379 3.17,-130.129 3.17,-224.41 91.69,0 173.39,2.148 245.06,6.379 v -79.782 c -76.55,3.301 -158.25,4.883 -245.06,4.883 0,-91.762 1.42,-177.781 4.57,-258.0702 114.51,0 223.43,2.5078 326.9,7.9609" /><path
         id="path52"
         style="fill:#231f20;fill-opacity:1;fill-rule:nonzero;stroke:none"
         d="M 11150.3,198.02 C 11150.3,65.9414 11061.5,0 10883.9,0 c -64.7,0 -122.4,7.55078 -172.6,22.9688 l 17.9,84.0902 c 58.1,-20.7504 113.1,-31.0785 165.1,-31.0785 117.2,0 175.7,34.2385 175.7,102.8285 0,34.652 -15.1,64.351 -45.4,88.953 -20.3,16.429 -60.4,38.386 -120.1,65.859 -62.7,28.91 -106.6,55.469 -131.8,79.859 -34.8,33.5 -52.2,75.629 -52.2,126.411 0,52.808 17.9,95.8 53.3,129.078 39.6,37.09 95.6,55.672 168,55.672 82.1,0 138.3,-5.602 168.6,-16.653 l -12.4,-85.16 c -52.3,17.16 -108,25.692 -167,25.692 -88.7,0 -132.9,-30.7 -132.9,-92.129 0,-29.551 12.7,-54.45 38.2,-74.321 16.5,-12.48 53.2,-31.57 109.6,-56.828 64.6,-28.844 111.1,-56.461 139.8,-82.433 43,-39.399 64.6,-87.528 64.6,-144.789" /></g></g></svg>