<?xml version="1.0" encoding="UTF-8" standalone="no"?>
<svg
   xmlns:dc="http://purl.org/dc/elements/1.1/"
   xmlns:cc="http://creativecommons.org/ns#"
   xmlns:rdf="http://www.w3.org/1999/02/22-rdf-syntax-ns#"
   xmlns:svg="http://www.w3.org/2000/svg"
   xmlns="http://www.w3.org/2000/svg"
   viewBox="0 0 863.33331 320.05334"
   height="320.05334"
   width="863.33331"
   xml:space="preserve"
   id="svg2"
   version="1.1"><metadata
     id="metadata8"><rdf:RDF><cc:Work
         rdf:about=""><dc:format>image/svg+xml</dc:format><dc:type
           rdf:resource="http://purl.org/dc/dcmitype/StillImage" /></cc:Work></rdf:RDF></metadata><defs
     id="defs6" /><g
     transform="matrix(1.3333333,0,0,-1.3333333,0,320.05333)"
     id="g10"><g
       transform="scale(0.1)"
       id="g12"><path
         id="path14"
         style="fill:#ffffff;fill-opacity:1;fill-rule:nonzero;stroke:none"
         d="m 0,1802.66 h 249.801 l 233.453,-936.012 228.07,936.012 h 241.043 v -71.25 h -20.379 c -24.593,0 -41.113,-3.11 -49.683,-9.3 -8.434,-6.31 -15.207,-17.25 -20.051,-32.83 -4.988,-15.65 -7.395,-41.41 -7.395,-77.23 V 832.781 c 0,-49.09 1.954,-81.051 5.903,-95.75 3.926,-14.672 10.586,-25.793 19.918,-33.402 9.179,-7.688 26.312,-11.508 51.308,-11.508 h 20.379 V 621.039 H 650.234 v 71.082 h 21.438 c 19.355,0 33.406,2.32 42.293,6.809 8.844,4.539 16.242,12.05 22.121,22.48 5.82,10.43 9.141,21.309 9.957,32.57 1.867,23.129 2.754,41.211 2.754,54.258 V 1678.11 L 490.527,621.039 H 433.883 L 174.066,1662.87 V 826.051 c 0,-42.742 2.391,-71.481 7.332,-86.571 4.926,-15.082 12.547,-26.71 22.934,-34.929 10.449,-8.231 29.078,-12.43 55.898,-12.43 h 18.157 V 621.039 H 0 v 71.082 h 15.875 c 26.7852,0 45.9844,4.32 57.5547,12.75 11.5273,8.438 19.7305,20.488 24.5937,36.059 4.8716,15.5 7.3866,46.129 7.3866,91.851 v 771.629 c 0,43.21 -2.023,71.75 -6.2069,85.71 -4.2109,13.92 -11.0039,24.31 -20.707,31.15 -9.6563,6.74 -26.6953,10.14 -51.3086,10.14 H 0 v 71.25" /><path
         id="path16"
         style="fill:#ffffff;fill-opacity:1;fill-rule:nonzero;stroke:none"
         d="m 1041.64,1636.7 h 491.37 l 56.72,-267.21 -38.12,-24.06 c -9.5,43.74 -19.95,78.02 -31.26,103.03 -11.24,24.92 -24.76,46.23 -40.51,63.69 -15.75,17.49 -31.74,29.12 -47.77,34.98 -16.04,5.78 -45.02,8.76 -86.91,8.76 h -146.72 v -372.1 h 73 c 26.96,0 47.26,7.6 61.04,22.97 13.78,15.29 23.23,34.32 28.5,57.08 4.05,16.99 6.09,46.62 6.09,88.82 v 16.83 h 42.46 V 923.852 h -42.46 v 38.636 c 0,33.981 -1.54,58.492 -4.59,73.452 -3.12,15.08 -8.61,29.33 -16.72,42.66 -8.09,13.33 -16.93,22.47 -26.31,27.29 -9.42,4.9 -25.47,7.27 -48.01,7.27 h -73 V 783.219 c 0,-34.391 0.95,-55.289 2.9,-62.879 1.78,-7.531 4.92,-12.891 9.25,-16.379 4.39,-3.32 16.27,-5.063 35.56,-5.063 h 90.76 c 50.63,0 90.15,10.223 118.69,30.614 28.5,20.359 53.51,51.508 75.18,93.636 17.04,32.903 33.45,79.352 49.04,139.34 l 39.41,-23.269 -67.62,-318.18 h -509.97 v 61.191 h 17.3 c 20.17,0 32.8,2.079 37.7,6.489 7.56,6.23 13.32,16.359 17.3,30.281 2.96,9.691 4.39,30.699 4.39,62.93 v 699.69 c 0,31.78 -1.91,53.09 -5.65,63.8 -3.78,10.72 -10.26,19.03 -19.45,24.93 -4.98,3.45 -22.16,5.15 -51.59,5.15 v 61.2" /><path
         id="path18"
         style="fill:#ffffff;fill-opacity:1;fill-rule:nonzero;stroke:none"
         d="m 1679.05,1636.7 h 234.42 v -61.2 h -21.72 c -16.74,0 -28.52,-2.7 -35.55,-8.1 -6.88,-5.4 -11.99,-13.21 -15.09,-23.47 -3.19,-10.31 -4.77,-28.62 -4.77,-55.05 V 780.441 c 0,-32.492 0.74,-51.929 2.18,-58.242 1.64,-8.687 5.44,-15 11.22,-18.898 4.06,-3 15.79,-4.403 35.15,-4.403 h 32.55 c 37.22,0 69.5,9.122 96.98,27.293 27.45,18.231 51.15,44.7 71.04,79.387 19.97,34.652 39.13,86.492 57.65,155.453 l 38.5,-21.812 -67.49,-318.18 h -435.07 v 61.191 h 19.04 c 18.47,0 30.89,2.579 37.26,7.981 6.34,5.32 11.23,14.168 14.73,26.5 3.49,12.43 5.24,33.609 5.24,63.73 v 690.989 c 0,35.15 -1.67,58.75 -4.79,70.66 -3.21,12.06 -7.83,20.53 -13.89,25.68 -6,5.16 -18.89,7.73 -38.55,7.73 h -19.04 v 61.2" /><path
         id="path20"
         style="fill:#ffffff;fill-opacity:1;fill-rule:nonzero;stroke:none"
         d="m 3204.72,1557.3 v -382.2 h 124.61 c 42.26,0 71.92,4.33 89,13.05 24.21,11.67 43.49,33.07 57.44,64.01 14.04,31.16 21.11,70.71 21.11,118.73 0,40.77 -5.15,75.16 -15.29,103.07 -10.09,27.84 -23.89,48.78 -41.37,62.61 -17.54,13.8 -43.64,20.73 -78.44,20.73 z m -156.76,79.4 h 311.95 c 59.2,0 103.98,-10.35 134.35,-30.96 30.29,-20.69 53.68,-50.6 70,-89.61 16.3,-39.04 24.42,-84.33 24.42,-135.75 0,-52.86 -7.89,-99.88 -23.83,-140.88 -15.96,-41.05 -38.88,-73.28 -68.88,-96.84 -30,-23.55 -69.73,-35.78 -119.31,-36.77 l 160.05,-327.691 c 13.01,-27.09 21.49,-43.871 25.53,-50.187 10.17,-15.043 20.77,-26.461 31.84,-34.192 11.14,-7.808 23.61,-11.629 37.47,-11.629 h 10.81 v -61.152 h -137.58 l -222.36,484.851 h -77.7 V 792.828 c 0,-34.937 0.78,-56.84 2.23,-65.519 3.13,-16.457 8.28,-28.168 15.39,-34.93 7.06,-6.828 20.84,-10.188 41.4,-10.188 h 15.54 v -61.152 h -231.32 v 61.152 h 20.77 c 15.6,0 26.07,1.618 31.43,5.059 5.36,3.461 9.99,9.359 14.29,17.871 4.18,8.52 7.14,19.277 8.85,32.367 0.65,5.403 1.01,29.871 1.29,73.571 v 664.701 c 0,29.49 -1.71,50.69 -5.16,63.47 -3.48,12.88 -8.32,22.06 -14.6,27.75 -6.13,5.65 -16.93,8.52 -32.2,8.52 h -24.67 v 61.2" /><path
         id="path22"
         style="fill:#ffffff;fill-opacity:1;fill-rule:nonzero;stroke:none"
         d="m 4007.35,1575.55 c -45.15,0 -83.95,-17.41 -116.31,-52.15 -32.48,-34.64 -58.5,-85.74 -78.02,-153.21 -19.53,-67.5 -29.28,-150.67 -29.28,-249.72 0,-94.68 9.58,-174.892 28.88,-240.611 19.27,-65.808 45.03,-116.109 77.43,-151.109 32.48,-34.93 68.92,-52.379 109.47,-52.379 40.24,0 75.89,17.078 106.84,51.27 30.86,34.23 56.51,88.148 76.81,161.597 20.23,73.633 30.41,155.212 30.41,245.072 0,91.22 -10.18,174.73 -30.41,250.47 -17.37,65.02 -40.34,113.04 -69.05,144.11 -28.66,31.07 -64.21,46.66 -106.77,46.66 m 0.17,78.64 c 55.19,0 105.11,-22.4 149.61,-67.06 48.27,-48.06 85.36,-110.38 111.29,-187.07 25.84,-76.72 38.71,-165.54 38.71,-266.46 0,-156.37 -28.9,-283.741 -86.65,-382.241 -57.86,-98.531 -131.51,-147.808 -221.17,-147.808 -100.04,0 -179.31,59.199 -237.72,177.648 -47.64,96.539 -71.45,212.121 -71.45,346.581 0,99.92 13.38,189.61 40.29,269.04 26.8,79.26 65.02,142.04 114.5,188.11 49.45,46.11 103.65,69.26 162.59,69.26" /><path
         id="path24"
         style="fill:#ffffff;fill-opacity:1;fill-rule:nonzero;stroke:none"
         d="m 5240.9,1636.7 h 491.4 l 56.74,-267.21 -38.19,-24.06 c -9.45,43.74 -19.79,78.02 -31.2,103.03 -11.21,24.92 -24.76,46.23 -40.49,63.69 -15.79,17.49 -31.75,29.12 -47.74,34.98 -16.07,5.78 -45.12,8.76 -87.04,8.76 h -146.63 v -372.1 h 72.93 c 27.01,0 47.38,7.6 61.12,22.97 13.67,15.29 23.22,34.32 28.49,57.08 4.04,16.99 6.04,46.62 6.04,88.82 v 16.83 h 42.5 V 923.852 h -42.5 v 38.636 c 0,33.981 -1.58,58.492 -4.58,73.452 -3.08,15.08 -8.55,29.33 -16.74,42.66 -8.1,13.33 -16.78,22.47 -26.35,27.29 -9.3,4.9 -25.37,7.27 -47.98,7.27 h -72.93 V 783.219 c 0,-34.391 1.03,-55.289 2.85,-62.879 1.83,-7.531 4.94,-12.891 9.3,-16.379 4.34,-3.32 16.22,-5.063 35.54,-5.063 h 90.77 c 50.56,0 90.14,10.223 118.67,30.614 28.46,20.359 53.56,51.508 75.24,93.636 17.08,32.903 33.38,79.352 48.97,139.34 l 39.44,-23.269 -67.68,-318.18 H 5240.9 v 61.191 h 17.29 c 20.23,0 32.83,2.079 37.77,6.489 7.47,6.23 13.25,16.359 17.28,30.281 2.85,9.691 4.31,30.699 4.31,62.93 v 699.69 c 0,31.78 -1.77,53.09 -5.6,63.8 -3.73,10.72 -10.21,19.03 -19.48,24.93 -4.94,3.45 -22.1,5.15 -51.57,5.15 v 61.2" /><path
         id="path26"
         style="fill:#ffffff;fill-opacity:1;fill-rule:nonzero;stroke:none"
         d="m 6037.34,1557.3 v -382.2 h 124.55 c 42.25,0 71.87,4.33 88.95,13.05 24.3,11.67 43.49,33.07 57.52,64.01 14.06,31.16 21.07,70.71 21.07,118.73 0,40.77 -5.06,75.16 -15.2,103.07 -10.18,27.84 -23.94,48.78 -41.42,62.61 -17.58,13.8 -43.65,20.73 -78.36,20.73 z m -156.92,79.4 h 312 c 59.33,0 104.08,-10.35 134.44,-30.96 30.29,-20.69 53.63,-50.6 69.91,-89.61 16.34,-39.04 24.51,-84.33 24.51,-135.75 0,-52.86 -7.96,-99.88 -23.92,-140.88 -15.91,-41.05 -38.88,-73.28 -68.84,-96.84 -30.04,-23.55 -69.7,-35.78 -119.23,-36.77 l 159.95,-327.691 c 13.03,-27.09 21.51,-43.871 25.59,-50.187 10.08,-15.043 20.73,-26.461 31.85,-34.192 11.14,-7.808 23.57,-11.629 37.43,-11.629 H 6475 v -61.152 h -137.76 l -222.2,484.851 h -77.7 V 792.828 c 0,-34.937 0.71,-56.84 2.16,-65.519 3.2,-16.457 8.26,-28.168 15.37,-34.93 7.09,-6.828 20.9,-10.188 41.42,-10.188 h 15.59 v -61.152 h -231.46 v 61.152 h 20.82 c 15.62,0 26.1,1.618 31.41,5.059 5.36,3.461 10.17,9.359 14.37,17.871 4.16,8.52 7.12,19.277 8.85,32.367 0.55,5.403 1.04,29.871 1.29,73.571 v 664.701 c 0,29.49 -1.69,50.69 -5.2,63.47 -3.43,12.88 -8.29,22.06 -14.5,27.75 -6.27,5.65 -16.95,8.52 -32.36,8.52 h -24.68 v 61.2" /><path
         id="path28"
         style="fill:#ffffff;fill-opacity:1;fill-rule:nonzero;stroke:none"
         d="m 2397.16,1817.86 c 8.8,24.02 7.37,56.29 30.93,68.59 95.46,11.09 160.86,11.35 240.42,5.61 4.7,34.69 -2.87,208.31 -0.57,258.82 2.85,59.49 72.78,19.1 89.8,19.36 27.4,-45.08 51.87,-132.74 56.97,-281.59 58.54,-5.4 169.85,8.56 265.77,9.19 26.69,0.21 76.85,-3.33 94.37,-2.75 17.58,0.5 20.18,-72.49 20.18,-72.49 0,0 -351.9,-84.74 -367.69,-96.35 -30.13,-21.89 -17.21,-319.54 -14.25,-494.65 3.23,-193.75 30.08,-393.58 44.58,-552.229 -8.21,-100.543 -191.84,-86.582 -191.95,-42.793 -0.08,91.32 -1.69,216.731 -6.25,328.113 -3.46,85.409 7.29,260.389 7.29,260.389 0,0 13.08,347.93 0.58,500.89 -73.92,38.8 -255.38,46.91 -270.18,91.89" /><path
         id="path30"
         style="fill:#ffffff;fill-opacity:1;fill-rule:nonzero;stroke:none"
         d="m 4854.24,1979.72 c -9.23,27.45 -8.19,64.1 -32.05,78.48 -95.79,14.2 -161.17,15.45 -240.86,10.26 -5.24,39.63 -0.29,236.91 -3.31,294.42 -3.76,67.75 -73.25,22.92 -90.25,23.39 -26.74,-50.78 5.66,-314.12 -52.84,-319.36 -58.58,-5.19 -170.33,12.43 -266.46,14.88 -26.75,0.62 -76.85,-2.58 -94.47,-1.7 -17.65,0.79 -19.11,-82.14 -19.11,-82.14 0,0 353.82,-101.98 369.87,-115.44 30.35,-25.42 22.06,-363.85 21.64,-562.88 -0.31,-220.43 -24.17,-447.169 -36.27,-627.509 9.67,-114.422 193.51,-101.531 192.88,-51.711 -1.29,103.918 -1.54,246.512 1.24,373.09 2.26,97.09 -11.12,296.33 -11.12,296.33 0,0 -18.29,395.91 -8.15,569.72 73.46,42.97 255.05,49.15 269.26,100.17" /><path
         id="path32"
         style="fill:#ffffff;fill-opacity:1;fill-rule:nonzero;stroke:none"
         d="m 5198.28,1688.5 c -3.82,22.47 -0.78,51.18 -14.33,64.6 -57.44,19.97 -97.21,26.92 -146.15,30.12 -0.54,31.61 15.54,186.12 17.5,231.48 2.11,53.55 -43.16,24.68 -53.5,26.71 -19.7,-37.39 -40.3,-113.34 -53.22,-245.93 -36.06,1.24 -103,25.41 -161.37,36.09 -16.32,2.92 -47.03,4.99 -57.69,7.32 -10.68,2.19 -17.08,-62.77 -17.08,-62.77 0,0 208.8,-112.51 217.77,-124.55 16.86,-22.77 -10.64,-287.69 -23.94,-443.94 -14.7,-173.11 -44.23,-348.919 -63.64,-489.419 -1.49,-90.77 111.31,-97.461 114.16,-58.32 6.16,81.789 15.34,193.668 25.48,292.871 7.76,76.028 12.7,233.728 12.7,233.728 0,0 14.97,312.49 32.66,448.13 47.61,27 158.66,15.24 170.65,53.88" /><path
         id="path34"
         style="fill:#ffffff;fill-opacity:1;fill-rule:nonzero;stroke:none"
         d="m 462.672,10.1797 h -56.274 c 0,46.0703 -3.035,112.8003 -9.285,200.0393 -6.215,87.281 -9.496,139.633 -9.906,156.992 H 384.27 C 364.273,300 338.949,227.039 308.34,148.352 277.656,69.7188 262.383,23.6914 262.383,10.1797 h -40.457 c 0,14.5 -14.289,61.3711 -42.832,140.6723 -28.453,79.296 -46.633,132.367 -54.199,159.277 -7.579,26.891 -12.75,45.902 -15.536,57.082 h -3.011 C 105.746,338.879 101.805,281.672 94.4883,195.672 87.2031,109.59 83.625,47.8203 83.625,10.1797 H 32.1055 c 0,2.1289 6.7773,58.9609 20.3867,170.7893 13.5195,111.75 20.3359,189.402 20.3359,233.019 h 78.7379 c 0,-22.758 15.957,-79.636 47.899,-170.578 31.953,-90.98 47.953,-146.1092 47.953,-165.2108 h 2.988 c 0,19.1016 17.946,74.3908 53.883,165.7108 35.945,91.262 53.899,148.02 53.899,170.078 h 76.914 c 0,-43.617 4.636,-120.937 13.839,-231.937 9.184,-111.0002 13.731,-168.3205 13.731,-171.8713" /><path
         id="path36"
         style="fill:#ffffff;fill-opacity:1;fill-rule:nonzero;stroke:none"
         d="m 1005.85,10.1797 h -56.912 c 2.968,67.0117 4.421,137.7183 4.421,212.1603 0,73.172 -1.453,137.058 -4.421,191.648 h 56.912 c -2.77,-56.418 -4.21,-120.308 -4.21,-191.648 0,-74.809 1.44,-145.5197 4.21,-212.1603" /><path
         id="path38"
         style="fill:#ffffff;fill-opacity:1;fill-rule:nonzero;stroke:none"
         d="m 1799.31,10.1797 h -41.9 c 0,3.5508 -32.72,53.1094 -98.26,148.6013 -68.52,100.25 -107.52,163.52 -117.08,189.821 h -2.94 c 3.56,-49.852 5.36,-92.571 5.36,-128.133 0,-69.457 1.44,-139.5393 4.46,-210.2893 h -50.27 c 3.39,67.1797 5.05,137.9293 5.05,212.1603 0,73 -1.66,136.808 -5.05,191.648 h 57.49 c 0,-5.726 30.12,-52.886 90.36,-141.418 63.15,-93.011 99.08,-153.582 107.8,-181.7106 h 3.08 c -3.4,50.4296 -5.11,93.1796 -5.11,128.3706 0,76.481 -1.42,141.411 -4.22,194.758 h 51.23 c -3.42,-54.84 -5.1,-118.648 -5.1,-191.648 0,-74.231 1.68,-144.9806 5.1,-212.1603" /><path
         id="path40"
         style="fill:#ffffff;fill-opacity:1;fill-rule:nonzero;stroke:none"
         d="m 2349.01,10.1797 h -56.91 c 3.08,67.0117 4.5,137.7183 4.5,212.1603 0,73.172 -1.42,137.058 -4.5,191.648 h 56.91 c -2.81,-56.418 -4.16,-120.308 -4.16,-191.648 0,-74.809 1.35,-145.5197 4.16,-212.1603" /><path
         id="path42"
         style="fill:#ffffff;fill-opacity:1;fill-rule:nonzero;stroke:none"
         d="M 3069.41,114.66 C 3069.41,38.1797 3018,0 2915.18,0 c -37.58,0 -70.87,4.37109 -100,13.3086 L 2825.67,62 c 33.52,-12.0117 65.34,-18 95.46,-18 67.95,0 101.83,19.8203 101.83,59.539 0,20.063 -8.76,37.262 -26.36,51.5 -11.74,9.52 -34.92,22.231 -69.48,38.141 -36.28,16.742 -61.76,32.121 -76.35,46.242 -20.16,19.398 -30.25,43.797 -30.25,73.199 0,30.578 10.35,55.469 30.9,74.738 22.95,21.469 55.38,32.231 97.28,32.231 47.56,0 80.03,-3.238 97.67,-9.629 l -7.24,-49.32 c -30.29,9.937 -62.57,14.871 -96.7,14.871 -51.34,0 -76.95,-17.774 -76.95,-53.34 0,-17.113 7.37,-31.531 22.13,-43.031 9.56,-7.231 30.75,-18.289 63.52,-32.911 37.34,-16.691 64.28,-32.691 80.85,-47.73 24.93,-22.809 37.43,-50.68 37.43,-83.84" /><path
         id="path44"
         style="fill:#ffffff;fill-opacity:1;fill-rule:nonzero;stroke:none"
         d="m 3784.98,413.988 -1.49,-43.707 c -39.5,2.078 -80.31,3.149 -122.44,3.149 -0.4,-39.739 -0.66,-90.102 -0.66,-151.129 0,-67.379 1,-138.051 3.09,-212.0822 h -54.85 c 2.41,70.5117 3.57,141.1722 3.57,212.0822 0,60.199 -0.57,110.558 -1.75,151.129 -29.58,0 -71.12,-1.289 -124.57,-3.782 l 1.51,44.34 h 297.59" /><path
         id="path46"
         style="fill:#ffffff;fill-opacity:1;fill-rule:nonzero;stroke:none"
         d="m 4431.77,301.121 c 0,49.18 -32.16,73.82 -96.46,73.82 -22.95,0 -42.21,-1.332 -57.79,-4.043 1.37,-35.957 2.13,-84.949 2.13,-146.687 11.94,-0.461 23.41,-0.652 34.47,-0.652 78.36,0 117.65,25.921 117.65,77.562 m 91.66,-290.9413 h -57.89 C 4446.4,69.5117 4432.44,108.84 4423.7,128 c -11.21,24.219 -23.87,39.84 -38.08,46.898 -11.19,5.571 -31.21,8.411 -60.21,8.411 -16.95,0 -32.02,-0.258 -45.19,-0.68 0,-66.758 1.21,-124.2579 3.56,-172.4493 h -55.66 c 2.99,64.1484 4.5,134.8593 4.5,212.1603 0,72.832 -1.51,136.648 -4.5,191.691 h 42.17 c 9.07,0 20.36,0.328 34.18,0.867 13.76,0.704 29.6,1 47.29,1 87.46,0 131.24,-31.289 131.24,-93.687 0,-51.883 -24.59,-88.402 -73.69,-109.551 v -3.031 c 21.97,-6.84 39.74,-22.629 53.28,-47.438 11.4,-20.691 31.62,-71.3707 60.84,-152.0113" /><path
         id="path48"
         style="fill:#ffffff;fill-opacity:1;fill-rule:nonzero;stroke:none"
         d="m 5036.6,10.1797 h -56.95 c 3.02,67.0117 4.56,137.7183 4.56,212.1603 0,73.172 -1.54,137.058 -4.56,191.648 h 56.95 c -2.83,-56.418 -4.25,-120.308 -4.25,-191.648 0,-74.809 1.42,-145.5197 4.25,-212.1603" /><path
         id="path50"
         style="fill:#ffffff;fill-opacity:1;fill-rule:nonzero;stroke:none"
         d="m 5772.55,57.0508 -1.79,-46.8711 h -241.37 c 2.83,64.1484 4.2,134.8593 4.2,212.1213 0,72.828 -1.37,136.687 -4.2,191.73 h 226.44 l -2.49,-46.281 c -54.86,2.531 -113.02,3.738 -174.55,3.738 1.2,-32.066 1.84,-75.347 1.84,-129.937 53.08,0 100.39,1.238 141.89,3.687 v -46.199 c -44.33,1.91 -91.63,2.832 -141.89,2.832 0,-53.133 0.82,-102.9491 2.63,-149.4413 66.31,0 129.39,1.4609 189.29,4.6211" /><path
         id="path52"
         style="fill:#ffffff;fill-opacity:1;fill-rule:nonzero;stroke:none"
         d="M 6456.39,114.66 C 6456.39,38.1797 6405,0 6302.13,0 c -37.47,0 -70.82,4.37109 -99.91,13.3086 L 6212.61,62 c 33.6,-12.0117 65.44,-18 95.57,-18 67.86,0 101.76,19.8203 101.76,59.539 0,20.063 -8.76,37.262 -26.35,51.5 -11.73,9.52 -34.93,22.231 -69.49,38.141 -36.31,16.742 -61.76,32.121 -76.31,46.242 -20.2,19.398 -30.25,43.797 -30.25,73.199 0,30.578 10.34,55.469 30.86,74.738 22.91,21.469 55.35,32.231 97.29,32.231 47.54,0 80.08,-3.238 97.64,-9.629 l -7.18,-49.32 c -30.33,9.937 -62.56,14.871 -96.72,14.871 -51.34,0 -76.97,-17.774 -76.97,-53.34 0,-17.113 7.39,-31.531 22.12,-43.031 9.57,-7.231 30.8,-18.289 63.51,-32.911 37.38,-16.691 64.29,-32.691 80.91,-47.73 24.89,-22.809 37.39,-50.68 37.39,-83.84" /></g></g></svg>